<svg enable-background="new 0 0 512 200" height="200" viewBox="0 0 512 200" width="512" xmlns="http://www.w3.org/2000/svg"><g fill="#efeae8"><path d="m477 71.404v57.192h-65.363v-8.17h57.193v-8.17h-57.193v-40.852h8.17v32.681h49.023v-32.681z"/><path d="m191.036 71.404v57.193h8.17v-16.341h57.194v-40.852zm57.193 32.681h-49.022v-24.511h49.022z"/><path d="m329.933 71.404v8.17h-57.193v32.682h-8.17v-40.852z"/><path d="m338.103 71.404v40.852h65.363v-8.17h-57.193v-8.17h57.193v-24.512zm57.193 16.34h-49.022v-8.17h49.022z"/></g><path d="m97.972 40.693-19.885 11.481 13.254 7.652 6.613-3.826 6.645 3.824 13.252-7.653z" fill="#3c77b9"/><path d="m154.306 80.863-46.399 26.79 13.254 7.653-23.194 13.39-23.195-13.39 13.263-7.653v-.009l-46.399-26.781v-15.288l-6.636-3.831v-19.127l56.339 32.518 6.628-3.822 6.627 3.822 56.33-32.518.009 19.118-6.636 3.831z" fill="#efeae8"/><path d="m97.975 159.307 49.701-28.698-.001-30.61-13.26 7.653.005 15.304-36.451 21.046-36.455-21.05-.001-15.303-13.25-7.65v30.607z" fill="#3c77b9"/></svg>