<?xml version="1.0" standalone="no"?>
<!DOCTYPE svg PUBLIC "-//W3C//DTD SVG 1.1//EN" "http://www.w3.org/Graphics/SVG/1.1/DTD/svg11.dtd" >
<svg xmlns="http://www.w3.org/2000/svg">
<metadata>
This is a custom SVG webfont generated by Font Squirrel.
Copyright   : Copyright  2011 Rod McDonald Published by Canada Type All rights reserved
Designer    : Rod McDonald Patrick Griffin Kevin King
Foundry     : Canada Type
Foundry URL : httpwwwcanadatypecom
</metadata>
<defs>
<font id="GibsonRegular" horiz-adv-x="1200" >
<font-face units-per-em="2048" ascent="1638" descent="-410" />
<missing-glyph horiz-adv-x="407" />
<glyph unicode=" "  horiz-adv-x="407" />
<glyph unicode="&#x09;" horiz-adv-x="407" />
<glyph unicode="&#xa0;" horiz-adv-x="407" />
<glyph unicode="!" horiz-adv-x="616" d="M172 106q0 59 38 94.5t99 35.5q59 0 97 -35t38 -95q0 -57 -37.5 -91.5t-97.5 -34.5q-61 0 -99 34.5t-38 91.5zM207 1413h205l-19 -1036h-170z" />
<glyph unicode="&#x22;" horiz-adv-x="913" d="M197 1413h188l-20 -438h-148zM528 1413h189l-23 -438h-145z" />
<glyph unicode="#" horiz-adv-x="1222" d="M76 465v129h241l48 309h-224v127h244l68 428h129l-66 -428h272l68 428h131l-67 -428h227v-127h-248l-47 -309h229v-129h-250l-65 -426h-131l65 426h-272l-68 -426h-131l68 426h-221zM446 594h275l47 309h-272z" />
<glyph unicode="$" d="M137 240l119 112q41 -92 129 -149.5t180 -59.5l2 506l-75 35q-109 49 -160 90q-135 106 -135 281q0 162 120 268q98 86 261 102l2 140h114v-142q221 -18 332 -190l-100 -117q-88 141 -242 158l-2 -473l123 -58q258 -115 258 -362q0 -180 -145 -293q-106 -86 -246 -100 l-2 -150h-115v148q-131 2 -243 69.5t-175 184.5zM375 1067q0 -55 27.5 -98t58.5 -64.5t80 -46.5l32 -16l2 434q-92 -10 -146 -65.5t-54 -143.5zM674 141q80 4 144.5 66.5t64.5 150.5q0 86 -40 137.5t-116 88.5l-51 24z" />
<glyph unicode="%" horiz-adv-x="1595" d="M63 1083q0 150 94.5 245t240 95t239.5 -95t94 -245q0 -152 -94 -247t-239.5 -95t-240 95t-94.5 247zM207 1083.5q0 -94.5 52 -153t138 -58.5t138.5 58.5t52.5 153t-52.5 153.5t-138.5 59t-138 -59t-52 -153.5zM309 14l875 1432l102 -62l-874 -1431zM864 315.5 q0 151.5 94.5 245.5t239.5 94t239.5 -94t94.5 -245.5t-94.5 -246t-239.5 -94.5t-239.5 94.5t-94.5 246zM1008 317.5q0 -94.5 52 -154t138 -59.5t138.5 59.5t52.5 154t-52.5 153.5t-138.5 59t-138 -59t-52 -153.5z" />
<glyph unicode="&#x26;" horiz-adv-x="1415" d="M76 371q0 152 96 251t274 189q-4 4 -26.5 30.5t-28.5 35.5l-25 33q-19 26 -25.5 39.5t-20 39t-18.5 46t-10 47t-5 53.5q0 137 101 219t259 82q156 0 254 -82t98 -215q0 -203 -280 -361l274 -323q33 39 91.5 133t84.5 153l154 -69q-29 -57 -99.5 -168t-119.5 -168 l297 -324v-12h-236l-174 203q-111 -113 -219 -170.5t-258 -57.5q-190 0 -314 106t-124 290zM274 381q0 -109 76 -179.5t189 -70.5q102 0 194 58.5t148 132.5l-326 376l-59 -32q-63 -37 -104.5 -67t-79.5 -89t-38 -129zM475 1126q0 -84 78 -174l57 -65q41 23 64.5 39t64.5 49 t61.5 74t20.5 86q0 76 -47 116.5t-125 40.5q-76 0 -125 -45t-49 -121z" />
<glyph unicode="'" horiz-adv-x="622" d="M217 1413h189l-21 -438h-147z" />
<glyph unicode="(" horiz-adv-x="581" d="M100 636.5q0 489.5 301 940.5l125 -68q-92 -137 -169.5 -381.5t-77.5 -490.5t77.5 -490.5t169.5 -382.5l-125 -67q-301 450 -301 939.5z" />
<glyph unicode=")" horiz-adv-x="581" d="M53 -236q92 137 170 382t78 491t-78 490.5t-170 381.5l125 68q303 -449 303 -940.5t-303 -939.5z" />
<glyph unicode="*" horiz-adv-x="1075" d="M156 1151l45 123l286 -115l-18 295h137l-18 -295l286 115l46 -123l-306 -90l201 -264l-106 -74l-172 278l-170 -278l-107 74l201 264z" />
<glyph unicode="+" horiz-adv-x="1366" d="M147 631v151h461v459h152v-459h459v-151h-459v-459h-152v459h-461z" />
<glyph unicode="," horiz-adv-x="616" d="M125 -287l143 504h201l-188 -504h-156z" />
<glyph unicode="-" horiz-adv-x="598" d="M51 479v164h496v-164h-496z" />
<glyph unicode="." horiz-adv-x="616" d="M172 106q0 59 38 94.5t99 35.5q59 0 97 -35t38 -95q0 -57 -37.5 -91.5t-97.5 -34.5q-61 0 -99 34.5t-38 91.5z" />
<glyph unicode="/" horiz-adv-x="1064" d="M43 -131l852 1747l131 -57l-852 -1749z" />
<glyph unicode="0" d="M59 705q0 195 54.5 354.5t180.5 267t306 107.5q137 0 243.5 -61.5t170 -166t95.5 -231.5t32 -270q0 -193 -53.5 -352.5t-179.5 -267.5t-308 -108t-308 108t-179.5 267.5t-53.5 352.5zM260 709q0 -250 87 -403.5t253 -153.5t253 153.5t87 403.5q0 252 -87 404.5 t-253 152.5t-253 -152.5t-87 -404.5z" />
<glyph unicode="1" horiz-adv-x="892" d="M127 1268v145h469v-1413h-193v1268h-276z" />
<glyph unicode="2" d="M115 1161q43 94 160.5 183.5t302.5 89.5q213 0 343 -115t130 -301q0 -82 -29 -160t-78 -142.5t-87 -104.5t-87 -85q-12 -10 -18 -16l-363 -346h721v-164h-954l-29 133l500 473q106 102 167.5 193.5t61.5 197.5q0 121 -79 198t-212 77q-207 0 -346 -228z" />
<glyph unicode="3" d="M106 219l111 121q27 -33 59.5 -67.5t117.5 -83t167 -48.5q141 0 229.5 69t88.5 193q0 123 -83 189.5t-210 66.5h-105v158h105q115 0 184.5 60.5t69.5 169t-77 169t-190 60.5q-172 0 -337 -162l-93 119q84 92 186.5 146.5t260.5 54.5q182 0 312 -100.5t130 -266.5 q0 -139 -69.5 -215t-159.5 -104v-7q100 -18 186 -107t86 -239q0 -188 -144.5 -301.5t-365.5 -113.5q-275 -1 -459 239z" />
<glyph unicode="4" d="M49 309v146l699 966h206v-948h205v-164h-205v-309h-192v309h-713zM244 471h520v717z" />
<glyph unicode="5" d="M92 213l111 115q47 -82 142 -135.5t210 -53.5q133 0 230.5 81t97.5 232.5t-97.5 232.5t-230.5 81q-164 0 -250 -76l-100 60l123 663h710v-160h-567l-74 -374q82 37 201 36q188 0 334.5 -122.5t146.5 -339.5q0 -221 -154.5 -349.5t-367.5 -128.5q-178 0 -296 75t-169 163z " />
<glyph unicode="6" d="M106 680q0 362 166 567q150 186 406 187q98 0 192.5 -33t121.5 -52l83 -59l-84 -133q-145 121 -311 121q-162 0 -262 -131q-121 -158 -121 -451q111 201 383 201q176 0 305 -120t129 -314q0 -209 -132 -348.5t-349 -139.5q-283 0 -428 244q-99 162 -99 461zM332 442 q0 -129 78.5 -219t218 -90t216.5 90t77 219t-77 219.5t-216.5 90.5t-218 -90.5t-78.5 -219.5z" />
<glyph unicode="7" d="M123 1253v160h962l54 -115l-680 -1298h-209l668 1253h-795z" />
<glyph unicode="8" d="M115 391q0 131 71.5 223.5t192.5 128.5v7q-221 84 -221 317q0 168 128 267.5t314 99.5t314 -99.5t128 -267.5q0 -231 -219 -319v-5q121 -39 192.5 -131t71.5 -221q0 -195 -136 -304.5t-351 -109.5t-350 109.5t-135 304.5zM309 405.5q0 -122.5 84 -195.5t207 -73t207 73 t84 195.5t-82 195.5t-209 73t-209 -73t-82 -195.5zM350 1049q0 -109 69.5 -169.5t180.5 -60.5t180.5 60.5t69.5 169.5q0 106 -70.5 167.5t-179 61.5t-179.5 -61.5t-71 -167.5z" />
<glyph unicode="9" d="M86 946q0 209 132 348.5t349 139.5q279 0 428 -244q98 -158 99 -461q0 -358 -166 -567q-150 -186 -400 -187q-236 0 -409 146l84 131q49 -47 135 -82t186 -35q164 0 260 129q119 158 119 457q-43 -86 -137 -147.5t-246 -61.5q-174 0 -304 119.5t-130 314.5zM279 971 q0 -129 76.5 -219t216 -90t218 90t78.5 219t-78.5 219t-218 90t-216 -90t-76.5 -219z" />
<glyph unicode=":" horiz-adv-x="616" d="M172 106q0 59 38 94.5t99 35.5q59 0 97 -35t38 -95q0 -57 -37.5 -91.5t-97.5 -34.5q-61 0 -99 34.5t-38 91.5zM172 860.5q0 57.5 38 93t99 35.5q59 0 97 -35.5t38 -93t-37.5 -93.5t-97.5 -36q-61 0 -99 36t-38 93.5z" />
<glyph unicode=";" horiz-adv-x="616" d="M125 -287l143 504h201l-188 -504h-156zM172 860.5q0 57.5 38 93t99 35.5q59 0 97 -35.5t38 -93t-37.5 -93.5t-97.5 -36q-61 0 -99 36t-38 93.5z" />
<glyph unicode="&#x3c;" horiz-adv-x="1366" d="M147 623v168l1072 458v-166l-881 -376l881 -377v-166z" />
<glyph unicode="=" horiz-adv-x="1366" d="M147 444v152h1072v-152h-1072zM147 817v150h1072v-150h-1072z" />
<glyph unicode="&#x3e;" horiz-adv-x="1366" d="M147 164v166l881 377l-881 376v166l1072 -458v-168z" />
<glyph unicode="?" horiz-adv-x="1007" d="M121 1241q39 70 132 131.5t251 61.5q174 0 281.5 -99.5t107.5 -236.5q0 -78 -27.5 -143.5t-55.5 -98.5t-85 -88q-18 -18 -50 -47l-48 -44q-16 -15 -34 -38t-26 -43q-14 -31 -16 -76l-4 -143h-166l-4 145v12q0 69 22 125q25 61 48.5 88t72.5 72l119 109q66 61 66 149 q0 90 -62.5 141.5t-167.5 51.5q-94 0 -162.5 -44t-105.5 -108zM330 106q0 59 36.5 94.5t98 35.5t98.5 -35t37 -95q0 -57 -37 -91.5t-98.5 -34.5t-98 34.5t-36.5 91.5z" />
<glyph unicode="@" horiz-adv-x="1638" d="M84 422q0 221 108.5 400t284.5 274.5t377 95.5q319 0 518 -188q182 -172 182 -426q0 -260 -159 -426q-139 -152 -308 -152q-147 0 -172 129q-129 -129 -262 -129q-39 0 -77.5 14.5t-78.5 47t-65.5 98t-25.5 155.5q0 129 56 255t163.5 212t236.5 86q158 0 230 -94l6 -8 l20 65h133l-174 -546q-20 -53 -20 -94q0 -14 3 -26q9 -48 68 -48q109 0 208.5 133t99.5 323q0 219 -159 364.5t-419 145.5q-270 0 -459.5 -187t-189.5 -474t168 -461t434 -174q45 0 90 4t82 10t76 15.5t67.5 18.5t59.5 23l50 21q19 8 44 21.5t35 19.5t28 19l17 10l45 -84 q-2 -2 -22 -16l-36 -24q-17 -11 -51 -29.5t-67 -34t-82 -31t-99.5 -26.5t-115 -18.5t-131.5 -7.5q-307 0 -512 205t-205 539zM543 328q0 -113 46 -160t111 -47q72 0 152 60.5t121 193.5l90 280l-4 7q-4 6 -11 14l-18 19q-10 11 -25.5 21.5t-35 19.5t-47 14.5t-58.5 5.5 q-131 0 -223 -131q-98 -135 -98 -297z" />
<glyph unicode="A" horiz-adv-x="1331" d="M2 0l576 1417h174l577 -1417h-221l-145 369h-607l-145 -369h-209zM412 535h495l-248 634z" />
<glyph unicode="B" horiz-adv-x="1202" d="M156 0v1413h381q231 0 335 -67q152 -98 152 -287q0 -109 -61.5 -195t-153.5 -114v-5q145 -31 229 -118.5t84 -225.5q0 -188 -151 -309q-117 -92 -357 -92h-458zM354 807h166q154 0 211 43q94 70 94 186q0 129 -94 181q-70 39 -194 38h-183v-448zM354 162h213 q176 0 248 49q102 70 103 199q0 125 -103 194q-76 51 -248 51h-213v-493z" />
<glyph unicode="C" horiz-adv-x="1361" d="M76 704.5q0 325.5 206.5 527.5t516.5 202q311 0 501 -187l-83 -160q-49 63 -163 118t-247 55q-231 0 -378.5 -153t-147.5 -398.5t148.5 -398t377.5 -152.5q264 0 422 172l86 -146q-186 -209 -516 -209q-313 0 -518 202t-205 527.5z" />
<glyph unicode="D" horiz-adv-x="1404" d="M156 0v1413h426q328 0 528 -184q219 -201 219 -522.5t-219 -522.5q-201 -184 -528 -184h-426zM354 172h228q238 0 376 131q168 160 168 404q0 246 -168 405q-139 131 -376 131h-228v-1071z" />
<glyph unicode="E" horiz-adv-x="1087" d="M156 0v1413h827v-166h-629v-422h594v-166h-594v-491h645v-168h-843z" />
<glyph unicode="F" horiz-adv-x="1011" d="M156 0v1413h784v-166h-586v-471h551v-166h-551v-610h-198z" />
<glyph unicode="G" horiz-adv-x="1529" d="M76 707q0 324 205.5 525.5t513.5 201.5q342 0 561 -236l10 -10l-135 -125q-172 201 -436 201q-223 0 -368.5 -150.5t-145.5 -406.5q0 -254 149.5 -405.5t376.5 -151.5q256 0 383 114l14 15v313h-381v162h574v-549q-229 -229 -600 -230q-307 0 -514 203t-207 529z" />
<glyph unicode="H" horiz-adv-x="1462" d="M156 0v1413h198v-584h752v584h199v-1413h-199v659h-752v-659h-198z" />
<glyph unicode="I" horiz-adv-x="509" d="M156 0v1413h198v-1413h-198z" />
<glyph unicode="J" horiz-adv-x="509" d="M-90 -385l4 152q39 -16 109 -17q82 0 107.5 64.5t25.5 183.5v1415h198v-1409q0 -201 -63 -299q-84 -115 -228 -115q-37 0 -73.5 5.5t-56 11.5t-23.5 8z" />
<glyph unicode="K" horiz-adv-x="1185" d="M156 0v1413h198v-602l576 602h241l-538 -557l577 -856h-241l-469 709l-146 -148v-561h-198z" />
<glyph unicode="L" horiz-adv-x="872" d="M156 0v1413h198v-1243h498v-170h-696z" />
<glyph unicode="M" horiz-adv-x="1748" d="M92 0l127 1413h246l407 -1091h5l407 1091h244l129 -1413h-197l-92 1116h-6l-432 -1128h-113l-432 1128h-6l-90 -1116h-197z" />
<glyph unicode="N" horiz-adv-x="1515" d="M156 0v1413h209l800 -1110q-2 174 -2 361v749h195v-1413h-195l-815 1126q4 -190 4 -374v-752h-196z" />
<glyph unicode="O" horiz-adv-x="1609" d="M76 704.5q0 329.5 211 529.5t518 200t518 -200t211 -529.5t-211 -529.5t-518 -200t-518 200t-211 529.5zM279 709q0 -250 151.5 -401.5t374.5 -151.5t374.5 150.5t151.5 402.5t-151.5 402.5t-374.5 150.5t-374.5 -150.5t-151.5 -402.5z" />
<glyph unicode="P" horiz-adv-x="1087" d="M156 0v1413h397q225 0 342 -100q137 -119 137 -303q0 -188 -137 -303q-117 -100 -342 -101h-199v-606h-198zM354 768h183q127 0 204 53q86 63 86 188.5t-86 186.5q-78 55 -204 55h-183v-483z" />
<glyph unicode="Q" horiz-adv-x="1609" d="M76 704.5q0 329.5 211 529.5t518 200t518 -200t211 -529q0 -315 -197 -519l156 -178l-129 -114l-162 186q-178 -104 -397 -105q-307 0 -518 200t-211 529.5zM279 709q0 -250 151.5 -401.5t374.5 -151.5q147 0 270 69l-119 135l129 115l121 -139q125 152 125 373 q0 252 -151.5 402.5t-374.5 150.5t-374.5 -150.5t-151.5 -402.5z" />
<glyph unicode="R" horiz-adv-x="1105" d="M156 0v1413h399q215 0 340 -98q137 -111 137 -299q0 -170 -95 -266.5t-226 -120.5l403 -629h-240l-368 608h-152v-608h-198zM354 772h146q168 0 237 49q90 68 90 191q0 125 -90 188q-70 51 -237 51h-146v-479z" />
<glyph unicode="S" horiz-adv-x="1093" d="M70 213l116 133q61 -82 156.5 -142.5t202.5 -60.5q119 0 197.5 64.5t78.5 173.5q0 51 -22.5 92t-68.5 70.5t-68.5 41t-69.5 29.5q-166 66 -225 95q-86 39 -142 100q-92 96 -92 246q0 164 129 272q125 104 326 105q231 0 405 -183l-104 -135q-143 152 -311 152 q-109 0 -177.5 -51.5t-68.5 -145.5q0 -47 15 -83t45 -61.5t56.5 -40t65.5 -30.5l260 -109q102 -47 160 -114q86 -106 86 -238q0 -186 -148 -307q-135 -111 -346 -111q-86 0 -162.5 24t-136 68t-90 73.5t-67.5 72.5z" />
<glyph unicode="T" horiz-adv-x="1026" d="M14 1247v166h996v-166h-398v-1247h-198v1247h-400z" />
<glyph unicode="U" horiz-adv-x="1366" d="M145 578v835h201v-817q0 -76 3 -120t17.5 -101.5t45.5 -95.5q92 -125 272 -125q176 0 272 125q31 39 45.5 96t17.5 102t3 119v817h199v-835q0 -150 -22.5 -250.5t-90.5 -180.5q-150 -172 -424 -172q-276 0 -424 172q-68 80 -91.5 180.5t-23.5 250.5z" />
<glyph unicode="V" horiz-adv-x="1220" d="M2 1413h213l397 -1126l398 1126h209l-521 -1415h-176z" />
<glyph unicode="W" horiz-adv-x="1902" d="M10 1413h209l305 -1114l326 1114h203l325 -1114l305 1114h209l-407 -1415h-195l-340 1143l-338 -1143h-194z" />
<glyph unicode="X" horiz-adv-x="1185" d="M-2 0l467 729l-434 684h233l328 -551l330 551h233l-434 -684l469 -729h-240l-358 600l-356 -600h-238z" />
<glyph unicode="Y" horiz-adv-x="1177" d="M-2 1413h223l367 -649l368 649h224l-492 -821v-592h-199v592z" />
<glyph unicode="Z" horiz-adv-x="1159" d="M61 0v152l773 1093h-750v168h1010v-135l-785 -1108h799v-170h-1047z" />
<glyph unicode="[" horiz-adv-x="581" d="M106 -287v1846h388v-117h-218v-1614h218v-115h-388z" />
<glyph unicode="\" horiz-adv-x="1056" d="M45 1571l123 57l846 -1638l-125 -60z" />
<glyph unicode="]" horiz-adv-x="581" d="M102 -172h217v1614h-217v117h387v-1846h-387v115z" />
<glyph unicode="^" horiz-adv-x="1366" d="M225 614l373 818h170l373 -818h-166l-291 650l-293 -650h-166z" />
<glyph unicode="_" horiz-adv-x="1024" d="M0 76h1024v-154h-1024v154z" />
<glyph unicode="`" horiz-adv-x="686" d="M156 1413h192l182 -297h-149z" />
<glyph unicode="a" horiz-adv-x="1007" d="M53 279q0 139 102.5 213.5t278.5 82.5l260 11v39q0 106 -65.5 163.5t-175.5 57.5q-158 0 -293 -84l-60 131q172 98 365 98q211 0 321 -110q104 -109 105 -316v-565h-191l-2 123q-137 -145 -309 -146q-141 0 -238.5 82.5t-97.5 219.5zM248 285q0 -72 53 -120t148 -48 q154 0 247 141v209l-227 -14q-221 -12 -221 -168z" />
<glyph unicode="b" horiz-adv-x="1222" d="M145 0v1413h195v-592h4q121 170 340 170q211 0 340 -142t129 -362q0 -221 -130 -365.5t-343 -144.5q-223 0 -342 177h-4v-154h-189zM332 489.5q0 -149.5 84 -247t227 -97.5t226 97.5t83 247t-83 245.5t-226 96t-227 -96t-84 -245.5z" />
<glyph unicode="c" horiz-adv-x="972" d="M70 485.5q0 227.5 147.5 366.5t349.5 139q117 0 211 -35.5t122 -59.5t44 -44l-70 -143q-119 119 -290 118q-133 0 -224.5 -93t-91.5 -242q0 -154 88 -250.5t230 -96.5q172 0 284 113l11 10l69 -143q-84 -84 -182 -117q-92 -31 -207 -31q-203 0 -347 140.5t-144 368z" />
<glyph unicode="d" horiz-adv-x="1222" d="M70 487q0 219 129 361.5t340 142.5q225 0 340 -170h4v592h194v-1413h-188v156h-4q-119 -178 -342 -179q-213 0 -343 144.5t-130 365.5zM270 489.5q0 -149.5 83 -247t226.5 -97.5t226.5 97.5t83 247t-83 245.5t-226.5 96t-226.5 -96t-83 -245.5z" />
<glyph unicode="e" horiz-adv-x="1083" d="M70 487q0 225 142 364.5t351 139.5q203 0 332 -130t129 -335l-6 -86h-750q8 -143 93 -226t221 -83q37 0 73.5 5t66.5 14.5t55.5 19.5t47.5 24l36 21q13 8 26.5 18.5t15.5 10.5l82 -113l-8 -8q-8 -8 -18 -15l-25 -21q-16 -13 -37 -25l-46 -24q-26 -13 -57.5 -23.5 t-66.5 -18.5t-79 -13.5t-91 -5.5q-217 0 -352 139.5t-135 370.5zM270 571h568q-2 98 -75 188.5t-206 90.5t-207 -87.5t-80 -191.5z" />
<glyph unicode="f" horiz-adv-x="561" d="M33 813v158h139v98q0 178 66 260q86 106 233 107q49 0 91 -5.5t61 -11.5l16 -6l-12 -145q-55 18 -111 18q-88 0 -118.5 -54t-30.5 -153v-108h231v-158h-231v-813h-195v813h-139z" />
<glyph unicode="g" horiz-adv-x="1214" d="M70 502q0 223 136 356t333 133q119 0 205.5 -48t134.5 -124h6l-2 154h194v-768q0 -293 -106 -420q-152 -186 -434 -186q-231 0 -435 145l93 137q47 -41 148 -82t200 -41q182 0 266 107q74 90 74 272v49h-4q-117 -174 -340 -174q-197 0 -333 133.5t-136 356.5zM270 501.5 q0 -143.5 82 -236.5t227.5 -93t227.5 93t82 236.5t-82 238t-227 94.5q-143 0 -226.5 -94.5t-83.5 -238z" />
<glyph unicode="h" horiz-adv-x="1122" d="M145 0v1413h195v-594h4q41 76 119 124t180 48q197 0 272.5 -108.5t75.5 -302.5v-580h-196v551q0 59 -7.5 103t-27 87t-61.5 65.5t-105 22.5q-127 0 -190.5 -96t-63.5 -252v-481h-195z" />
<glyph unicode="i" horiz-adv-x="483" d="M113 1292.5q0 53.5 35.5 87t93.5 33.5q55 0 91 -33.5t36 -87t-36 -87.5t-91 -34q-57 0 -93 34t-36 87.5zM143 0v973h197v-973h-197z" />
<glyph unicode="j" horiz-adv-x="483" d="M-90 -385l2 156q41 -14 92 -15q86 0 112.5 62.5t26.5 185.5v969h197v-975q0 -193 -61 -279q-90 -121 -246 -120q-35 0 -65.5 4t-45.5 8zM113 1292.5q0 53.5 35.5 87t93.5 33.5q55 0 91 -33.5t36 -87t-36 -87.5t-91 -34q-57 0 -93 34t-36 87.5z" />
<glyph unicode="k" horiz-adv-x="997" d="M145 0v1413h195v-829l397 389h230l-381 -367l430 -606h-230l-333 471l-113 -106v-365h-195z" />
<glyph unicode="l" horiz-adv-x="485" d="M145 0v1413h195v-1413h-195z" />
<glyph unicode="m" horiz-adv-x="1671" d="M135 0v973h197l-2 -154h6q37 72 112.5 122t167.5 50q221 0 289 -192q102 193 309 192q330 0 330 -401v-590h-194v567q0 262 -179 262q-111 0 -172 -92t-61 -231v-506h-197v567q0 262 -176 262q-111 0 -172 -92t-61 -231v-506h-197z" />
<glyph unicode="n" horiz-adv-x="1107" d="M135 0v973h197l-2 -154h6q41 76 117.5 124t179.5 48q193 0 270.5 -110.5t77.5 -305.5v-575h-197v543q0 141 -41 213.5t-161 72.5q-129 0 -189.5 -94t-60.5 -246v-489h-197z" />
<glyph unicode="o" horiz-adv-x="1169" d="M70 483.5q0 223.5 147.5 365.5t368.5 142q219 0 366.5 -142t147.5 -365.5t-147.5 -365t-366.5 -141.5q-221 0 -368.5 141.5t-147.5 365zM268 489.5q0 -147.5 87 -246t230.5 -98.5t229.5 98.5t86 246t-86 244.5t-229.5 97t-230.5 -97t-87 -244.5z" />
<glyph unicode="p" horiz-adv-x="1220" d="M143 -381v1354h189v-154h4q129 172 346 172q211 0 340 -142t129 -362q0 -221 -130 -365.5t-343 -144.5q-223 0 -336 175l-2 2v-535h-197zM332 489.5q0 -149.5 83 -247t226 -97.5t226 97.5t83 247t-83 245.5t-226 96t-226 -96t-83 -245.5z" />
<glyph unicode="q" horiz-adv-x="1212" d="M70 487q0 219 129 361.5t340 142.5q219 0 346 -172h6l-2 154h188v-1354h-194v533h-4q-115 -174 -336 -175q-213 0 -343 144.5t-130 365.5zM270 489.5q0 -149.5 83 -247t226.5 -97.5t226.5 97.5t83 247t-83 245.5t-226.5 96t-226.5 -96t-83 -245.5z" />
<glyph unicode="r" horiz-adv-x="686" d="M135 0v973h197l-2 -150h6q72 168 239 168q29 0 54.5 -4t38.5 -8l10 -4l-12 -182h-9q-47 20 -106 20q-96 0 -160 -82q-59 -86 -59 -246v-485h-197z" />
<glyph unicode="s" horiz-adv-x="847" d="M41 152l94 114q53 -66 134 -102.5t153 -36.5q78 0 132 33t54 106q0 25 -12 47.5t-28.5 37t-45 28.5t-46 20.5t-49.5 16.5l-38 12q-106 37 -133 51q-154 78 -154 234q0 129 95.5 203.5t232.5 74.5q213 0 332 -127l-82 -121q-100 104 -246 105q-72 0 -113.5 -31t-41.5 -90 q0 -53 49 -85t141 -60l131 -47q74 -31 113 -70q78 -74 78 -180q0 -137 -101 -222q-104 -86 -270 -86q-246 1 -379 175z" />
<glyph unicode="t" horiz-adv-x="636" d="M31 813v158h143v291h197v-291h233v-158h-233v-440q0 -133 24 -178q29 -49 101 -50q25 0 50 5.5t38 11.5l12 6l12 -158q-76 -33 -178 -33q-139 0 -207 101q-49 74 -49 291v444h-143z" />
<glyph unicode="u" horiz-adv-x="1097" d="M127 391v584h195v-576q0 -119 42 -188.5t160 -69.5q121 0 181.5 89t60.5 223v522h197v-975h-191l-2 139q-41 -74 -121 -118t-180 -44q-182 0 -270 113q-72 96 -72 301z" />
<glyph unicode="v" horiz-adv-x="987" d="M2 973h205l289 -733l286 733h203l-405 -973h-172z" />
<glyph unicode="w" horiz-adv-x="1558" d="M20 973h199l225 -735l256 737h158l256 -737l225 735h199l-321 -973h-181l-256 727l-258 -727h-180z" />
<glyph unicode="x" horiz-adv-x="1015" d="M-2 0l395 512l-350 461h217l248 -350l248 350h219l-352 -461l395 -512h-221l-289 395l-289 -395h-221z" />
<glyph unicode="y" horiz-adv-x="980" d="M2 975l205 -2l289 -756l286 758l203 -2l-469 -1143q-49 -123 -110.5 -174t-145.5 -51q-49 0 -95 9t-67 17l-22 9l39 159q53 -23 102 -22q23 0 33 2t28.5 11t35 33.5t30.5 67.5l47 129z" />
<glyph unicode="z" horiz-adv-x="933" d="M43 0v121l569 692h-540v158h790v-119l-567 -690h596v-162h-848z" />
<glyph unicode="{" horiz-adv-x="581" d="M23 561v148q131 0 131 172v370q0 164 55 236t205 72h90v-117h-45q-78 0 -107.5 -30t-29.5 -105v-408q0 -129 -35 -182t-113 -78v-8q78 -25 113 -77t35 -181v-410q0 -76 29.5 -105.5t107.5 -29.5h45v-115h-90q-150 0 -205 72t-55 233v373q0 170 -131 170z" />
<glyph unicode="|" horiz-adv-x="581" d="M219 -244v1882h143v-1882h-143z" />
<glyph unicode="}" horiz-adv-x="581" d="M76 -172h47q78 0 106.5 28.5t28.5 106.5v410q0 129 35 181t115 77v8q-80 25 -115 78t-35 182v408q0 78 -28.5 106.5t-106.5 28.5h-47v117h92q150 0 205 -72t55 -236v-370q0 -172 129 -172v-148q-129 0 -129 -170v-373q0 -162 -55.5 -233.5t-204.5 -71.5h-92v115z" />
<glyph unicode="~" horiz-adv-x="1366" d="M158 551q127 207 305 207q96 0 244 -76q135 -70 200 -70q111 0 197 144l104 -101q-125 -207 -305 -206q-92 0 -244 75q-143 70 -200 70q-106 0 -197 -143z" />
<glyph unicode="&#xa1;" horiz-adv-x="616" d="M172 866.5q0 57.5 38 93t99 35.5q59 0 97 -35.5t38 -93t-37.5 -93.5t-97.5 -36q-61 0 -99 36t-38 93.5zM207 -440l16 1038h170l19 -1038h-205z" />
<glyph unicode="&#xa2;" d="M156 625q0 205 127 343t325 160v183h121v-181q96 -6 184 -43.5t125 -78.5l-61 -144q-90 94 -248 109v-690q72 2 147.5 34.5t110.5 69.5l57 -139q-35 -39 -129 -82t-186 -45v-182h-121v184q-199 20 -325.5 157.5t-126.5 344.5zM346 627q0 -127 69.5 -220.5t192.5 -115.5 v676q-119 -20 -190.5 -116.5t-71.5 -223.5z" />
<glyph unicode="&#xa3;" d="M127 0v158h240q29 47 50 125.5t21 138.5l-14 162h-236v131h213l-45 127q-47 133 -47 233q0 154 109 256q106 102 282 103q240 0 355 -170l-94 -113l-9 12l-14 18q-6 7 -20.5 21.5t-26.5 23.5t-32.5 21.5t-40 19.5t-47.5 12t-56 5q-113 0 -167 -64.5t-54 -150.5 q0 -98 51 -238l41 -116h307v-131h-285q14 -84 15 -162q0 -59 -21.5 -138t-50.5 -126h549v-158h-973z" />
<glyph unicode="&#xa4;" d="M72 510v133l123 2q-2 39 -2 72v69h-121v134h139q35 223 176 368q139 145 348 146q201 0 361 -140l-68 -153q-104 133 -289 133q-123 0 -210 -88t-113 -266h510v-134h-529v-69l2 -74h527v-133h-510q20 -172 107 -267.5t218 -95.5q166 0 297 142l6 6l82 -131l-8 -10 q-6 -10 -12 -17.5t-19.5 -22t-26.5 -25.5t-33.5 -26.5t-42 -26.5t-50.5 -23.5t-58.5 -19.5t-67.5 -12.5t-77 -5.5q-205 0 -343 141.5t-179 393.5h-137z" />
<glyph unicode="&#xa5;" d="M35 1413h223l342 -641l344 641h221l-352 -600h250v-133h-324l-41 -82v-70h365v-133h-365v-395h-196v395h-365v133h365v68l-39 84h-326v133h250z" />
<glyph unicode="&#xa6;" horiz-adv-x="581" d="M219 0v639h143v-639h-143zM219 997v641h143v-641h-143z" />
<glyph unicode="&#xa7;" horiz-adv-x="1251" d="M197 -154l129 91q37 -92 117.5 -143.5t181.5 -51.5q98 0 157.5 48t59.5 138q0 84 -59.5 134.5t-180.5 105.5l-176 82q-203 96 -203 299q0 68 25.5 125t63.5 92t68 54.5t52 27.5q-6 4 -16 10t-35 30.5t-44.5 52.5t-35.5 74t-16 95q0 147 105.5 235.5t266.5 88.5 q281 0 396 -217l-111 -97q-92 176 -278 176q-90 0 -144.5 -45t-54.5 -129q0 -76 57.5 -125t173.5 -102l142 -64q217 -102 217 -317q0 -170 -166 -268l-37 -19q70 -37 122 -112.5t52 -177.5q0 -154 -117.5 -246t-290.5 -92q-310 -1 -421 247zM391 571q0 -115 135 -186 l211 -92q147 51 148 207q0 123 -137 188l-211 92q-146 -49 -146 -209z" />
<glyph unicode="&#xa8;" horiz-adv-x="686" d="M78 1264q0 49 31.5 79.5t76.5 30.5t76 -30.5t31 -79.5q0 -47 -31 -78t-76 -31t-76.5 31t-31.5 78zM393 1264q0 49 31 79.5t76 30.5t76.5 -30.5t31.5 -79.5q0 -47 -31.5 -78t-76.5 -31t-76 31t-31 78z" />
<glyph unicode="&#xa9;" horiz-adv-x="1611" d="M78 706.5q0 307.5 211 518.5t518 211q305 0 517 -211t212 -518.5t-212 -518.5t-517 -211q-307 0 -518 211t-211 518.5zM174 706.5q0 -262.5 185.5 -447.5t447.5 -185t447.5 185t185.5 447.5t-185.5 447.5t-447.5 185t-447.5 -185t-185.5 -447.5zM410 706.5 q0 190.5 122.5 312.5t305.5 122q205 0 309 -119l-66 -98q-31 39 -94 70.5t-145 31.5q-125 0 -210 -83t-85 -232.5t83 -233.5t212 -84q147 0 250 99l63 -91q-41 -49 -123 -89t-194 -40q-182 0 -305 122t-123 312.5z" />
<glyph unicode="&#xaa;" horiz-adv-x="718" d="M63 561q0 170 238 178l166 6v13q0 63 -41 96t-107 33q-55 0 -108 -18.5t-72 -34.5l-47 92q102 66 240 65q143 0 213 -69q68 -66 67 -203v-334h-141l-2 74q-27 -31 -79 -57.5t-114 -26.5q-84 0 -148.5 48t-64.5 138zM215 567q0 -94 115 -94q47 0 85 23.5t52 44.5v121 l-135 -5q-117 -8 -117 -90z" />
<glyph unicode="&#xab;" horiz-adv-x="1001" d="M111 487l305 406l106 -80l-241 -326l243 -329l-108 -76zM453 487l303 406l108 -80l-243 -326l243 -329l-108 -76z" />
<glyph unicode="&#xac;" horiz-adv-x="1370" d="M147 803v151h1072v-612h-152v461h-920z" />
<glyph unicode="&#xad;" horiz-adv-x="598" d="M51 479v164h496v-164h-496z" />
<glyph unicode="&#xae;" horiz-adv-x="1611" d="M78 706.5q0 307.5 211 518.5t518 211q305 0 517 -211t212 -518.5t-212 -518.5t-517 -211q-307 0 -518 211t-211 518.5zM174 706.5q0 -262.5 185.5 -447.5t447.5 -185t447.5 185t185.5 447.5t-185.5 447.5t-447.5 185t-447.5 -185t-185.5 -447.5zM541 285v843l290 -2 q111 0 188 -65.5t77 -177.5q0 -106 -56.5 -161.5t-130.5 -72.5l228 -364h-158l-203 350h-104v-350h-131zM672 743h112q176 0 176.5 137.5t-176.5 137.5h-112v-275z" />
<glyph unicode="&#xaf;" horiz-adv-x="686" d="M78 1212v113h530v-113h-530z" />
<glyph unicode="&#xb0;" horiz-adv-x="843" d="M106 1196q0 131 92.5 220t223.5 89t223 -89t92 -220q0 -133 -92 -222t-223 -89t-223.5 89t-92.5 222zM223 1196q0 -82 57.5 -141.5t141.5 -59.5t142.5 59.5t58.5 141.5t-58.5 140.5t-142.5 58.5t-141.5 -58.5t-57.5 -140.5z" />
<glyph unicode="&#xb1;" horiz-adv-x="1366" d="M147 176v150h1072v-150h-1072zM147 811v150h459v399h154v-399h459v-150h-459v-399h-154v399h-459z" />
<glyph unicode="&#xb2;" horiz-adv-x="776" d="M74 1272q12 90 96 154.5t211 64.5q133 0 218 -69.5t85 -178.5q0 -27 -6 -53.5t-12.5 -46t-23.5 -46l-24.5 -38.5t-32 -39t-30.5 -33l-35 -34l-31 -29l-210 -209h421v-123h-606l-10 106l324 316q72 72 101.5 118t29.5 99q0 61 -45 99t-123 38q-147 0 -203 -156z" />
<glyph unicode="&#xb3;" horiz-adv-x="776" d="M84 774l98 64q23 -63 77 -99.5t126 -36.5q74 0 126 40t52 106q0 70 -50 109.5t-128 41.5h-51v115h59q63 2 106.5 39t43.5 98q0 53 -41 88t-109 35q-133 0 -190 -121l-82 70q33 76 105.5 122t172.5 46q119 0 203 -64.5t84 -166.5q0 -141 -143 -197v-4q74 -20 120 -78.5 t46 -134.5q0 -119 -92.5 -191.5t-223.5 -72.5q-115 0 -195.5 49t-113.5 143z" />
<glyph unicode="&#xb4;" horiz-adv-x="686" d="M156 1116l182 297h192l-225 -297h-149z" />
<glyph unicode="&#xb5;" horiz-adv-x="1107" d="M135 -381v1352h195v-549q0 -131 45 -204t162 -73q123 0 181 77t58 208v541h197v-971h-191l-2 131q-35 -53 -111.5 -99t-160.5 -46q-70 0 -119 23.5t-65 53.5l4 -444h-193z" />
<glyph unicode="&#xb6;" horiz-adv-x="1230" d="M104 991q0 205 120 313.5t341 108.5h549v-141h-106v-1653h-148v1653h-186v-1653h-150v948q-188 4 -304 113.5t-116 310.5z" />
<glyph unicode="&#xb7;" horiz-adv-x="694" d="M213 592q0 57 37 92t96.5 35t97 -35t37.5 -92t-37.5 -93t-97 -36t-96.5 36t-37 93z" />
<glyph unicode="&#xb8;" horiz-adv-x="716" d="M186 -299l207 299h137l-165 -299h-179z" />
<glyph unicode="&#xb9;" horiz-adv-x="776" d="M217 1360v110h318v-880h-148v770h-170z" />
<glyph unicode="&#xba;" horiz-adv-x="806" d="M84 682q0 135 91 222t228.5 87t228.5 -87t91 -222q0 -133 -91 -220t-228.5 -87t-228.5 87t-91 220zM229 688q0 -88 50.5 -140t123.5 -52q72 0 122 52t50 140q0 86 -50 136t-122 50q-74 0 -124 -49t-50 -137z" />
<glyph unicode="&#xbb;" horiz-adv-x="1001" d="M135 815l109 78l305 -406l-305 -405l-107 78l242 327zM477 815l109 78l303 -406l-303 -405l-107 78l242 327z" />
<glyph unicode="&#xbc;" horiz-adv-x="1822" d="M137 1303v110h320v-819h-148v709h-172zM311 14l875 1432l102 -62l-874 -1431zM936 180v90l471 625h137v-596h129v-119h-129v-180h-145v180h-463zM1098 299h301v412z" />
<glyph unicode="&#xbd;" horiz-adv-x="1824" d="M133 1303v110h320v-850h-148v740h-172zM303 14l875 1432l102 -62l-874 -1431zM1073 698q88 178 305 179q123 0 206 -71t83 -179q0 -68 -31.5 -131.5t-61.5 -95t-87 -85.5l-203 -190h416v-125h-600l-21 94l295 277q147 139 148 233q0 68 -45 108t-117 40q-119 0 -205 -140 z" />
<glyph unicode="&#xbe;" horiz-adv-x="1822" d="M84 774l98 64q23 -63 77 -99.5t126 -36.5q74 0 126 40t52 106q0 70 -50 109.5t-128 41.5h-51v115h59q63 2 106.5 39t43.5 98q0 53 -41 88t-109 35q-133 0 -190 -121l-82 70q33 76 105.5 122t172.5 46q119 0 203 -64.5t84 -166.5q0 -141 -143 -197v-4q74 -20 120 -78.5 t46 -134.5q0 -119 -92.5 -191.5t-223.5 -72.5q-115 0 -195.5 49t-113.5 143zM401 14l875 1432l102 -62l-874 -1431zM936 180v90l471 625h137v-596h129v-119h-129v-180h-145v180h-463zM1098 299h301v412z" />
<glyph unicode="&#xbf;" horiz-adv-x="1007" d="M117 -127q0 78 26.5 143.5t56 100.5t85.5 88q18 18 49 46l47 43q16 15 33.5 37.5t27.5 43.5q14 39 15 78l4 143h166l4 -145v-12q0 -69 -23 -125q-25 -60 -49 -88.5t-72 -71.5l-118 -111q-66 -59 -66 -149q0 -88 63.5 -139.5t165.5 -51.5q180 0 269 150l88 -123 q-115 -190 -385 -191q-174 0 -280.5 98.5t-106.5 235.5zM408 864.5q0 57.5 37.5 93t99.5 35.5q59 0 97 -35.5t38 -93t-38 -93.5t-97 -36q-61 0 -99 36t-38 93.5z" />
<glyph unicode="&#xc0;" horiz-adv-x="1331" d="M2 0l576 1417h174l577 -1417h-221l-145 369h-607l-145 -369h-209zM371 1817h192l182 -297h-149zM412 535h495l-248 634z" />
<glyph unicode="&#xc1;" horiz-adv-x="1331" d="M2 0l576 1417h174l577 -1417h-221l-145 369h-607l-145 -369h-209zM412 535h495l-248 634zM586 1520l182 297h193l-226 -297h-149z" />
<glyph unicode="&#xc2;" horiz-adv-x="1331" d="M2 0l576 1417h174l577 -1417h-221l-145 369h-607l-145 -369h-209zM397 1520l189 297h159l189 -297h-143l-125 202l-125 -202h-144zM412 535h495l-248 634z" />
<glyph unicode="&#xc3;" horiz-adv-x="1331" d="M2 0l576 1417h174l577 -1417h-221l-145 369h-607l-145 -369h-209zM346 1587q4 82 60.5 135.5t128.5 53.5q20 0 40.5 -3.5t37 -9.5t26.5 -11l25 -12q14 -7 16 -9q2 0 27.5 -16.5t48 -25t45.5 -8.5q33 0 57.5 26t30.5 60l96 -20q-6 -82 -61.5 -135t-126.5 -53q-20 0 -41 3 t-37.5 9t-26.5 11l-24 12q-14 7 -17 10q-2 0 -27.5 16t-48 24.5t-45.5 8.5q-33 0 -57 -25.5t-31 -60.5zM412 535h495l-248 634z" />
<glyph unicode="&#xc4;" horiz-adv-x="1331" d="M2 0l576 1417h174l577 -1417h-221l-145 369h-607l-145 -369h-209zM401 1661q0 47 32 77.5t77 30.5t75.5 -30.5t30.5 -77.5q0 -49 -30.5 -80t-75.5 -31t-77 31t-32 80zM412 535h495l-248 634zM715 1661q0 49 30.5 78.5t75.5 29.5t77 -30.5t32 -77.5q0 -49 -32 -80t-77 -31 t-75.5 31t-30.5 80z" />
<glyph unicode="&#xc5;" horiz-adv-x="1331" d="M2 0l576 1417h174l577 -1417h-221l-145 369h-607l-145 -369h-209zM412 535h495l-248 634zM461 1683q0 84 59.5 139.5t145.5 55.5t145 -55.5t59 -139.5t-59 -139t-145 -55t-145.5 55t-59.5 139zM559 1683q0 -47 31 -77.5t76 -30.5t75.5 30.5t30.5 77.5q0 45 -29.5 76 t-77 31t-77 -31t-29.5 -76z" />
<glyph unicode="&#xc6;" horiz-adv-x="1800" d="M-61 0l888 1413h869v-166h-572v-413h537v-166h-537v-500h588v-168h-786v373h-539l-225 -373h-223zM487 537h439v714h-4z" />
<glyph unicode="&#xc7;" horiz-adv-x="1361" d="M76 705q0 326 206.5 527.5t516.5 201.5q311 0 501 -187l-83 -160q-49 63 -163 118t-247 55q-231 0 -378.5 -153t-147.5 -398.5t148.5 -398t377.5 -152.5q264 0 422 172l86 -146q-178 -199 -475 -207l-131 -284h-201l170 293q-246 31 -424 219.5t-178 499.5z" />
<glyph unicode="&#xc8;" horiz-adv-x="1087" d="M156 0v1413h827v-166h-629v-422h594v-166h-594v-491h645v-168h-843zM309 1817h193l180 -297h-147z" />
<glyph unicode="&#xc9;" horiz-adv-x="1087" d="M156 0v1413h827v-166h-629v-422h594v-166h-594v-491h645v-168h-843zM432 1520l182 297h191l-225 -297h-148z" />
<glyph unicode="&#xca;" horiz-adv-x="1087" d="M156 0v1413h827v-166h-629v-422h594v-166h-594v-491h645v-168h-843zM301 1520l188 297h160l189 -297h-144l-125 202l-125 -202h-143z" />
<glyph unicode="&#xcb;" horiz-adv-x="1087" d="M156 0v1413h827v-166h-629v-422h594v-166h-594v-491h645v-168h-843zM305 1661q0 47 32 77.5t77 30.5t75.5 -29.5t30.5 -78.5t-30.5 -80t-75.5 -31t-77 31t-32 80zM618 1661q0 47 32 77.5t77 30.5t76 -29.5t31 -78.5t-31 -80t-76 -31t-77 31t-32 80z" />
<glyph unicode="&#xcc;" horiz-adv-x="509" d="M-20 1817h192l182 -297h-149zM156 0v1413h198v-1413h-198z" />
<glyph unicode="&#xcd;" horiz-adv-x="509" d="M156 0v1413h198v-1413h-198zM158 1520l182 297h190l-225 -297h-147z" />
<glyph unicode="&#xce;" horiz-adv-x="509" d="M-12 1520l186 297h162l186 -297h-143l-123 202l-125 -202h-143zM156 0v1413h198v-1413h-198z" />
<glyph unicode="&#xcf;" horiz-adv-x="509" d="M-8 1667q0 49 30.5 80t75.5 31t77 -31t32 -80q0 -47 -32 -77.5t-77 -30.5t-75.5 29.5t-30.5 78.5zM156 0v1413h198v-1413h-198zM305 1667q0 49 31 80t76 31t76.5 -31t31.5 -80q0 -47 -31.5 -77.5t-76.5 -30.5t-76 30.5t-31 77.5z" />
<glyph unicode="&#xd0;" horiz-adv-x="1404" d="M23 666v147h133v600h426q328 0 528 -184q219 -201 219 -522.5t-219 -522.5q-201 -184 -528 -184h-426v666h-133zM354 172h228q238 0 376 131q168 160 168 404q0 246 -168 405q-139 131 -376 131h-228v-430h359v-145h-359v-496z" />
<glyph unicode="&#xd1;" horiz-adv-x="1515" d="M156 0v1413h209l800 -1110q-2 174 -2 361v749h195v-1413h-195l-815 1126q4 -190 4 -374v-752h-196zM438 1587q4 82 59.5 135.5t127.5 53.5q23 0 42 -3.5t36.5 -9.5t27.5 -11l25 -12q14 -7 16 -9t27.5 -17.5t48 -24t43.5 -8.5q35 0 59.5 25t30.5 61l96 -20 q-6 -82 -61 -135t-127 -53q-20 0 -41 3t-37 9t-27 11l-24 12q-14 7 -17 10q-2 0 -27.5 16t-48 24.5t-44.5 8.5q-70 0 -91 -86z" />
<glyph unicode="&#xd2;" horiz-adv-x="1609" d="M76 704.5q0 329.5 211 529.5t518 200t518 -200t211 -529.5t-211 -529.5t-518 -200t-518 200t-211 529.5zM279 709q0 -250 151.5 -401.5t374.5 -151.5t374.5 150.5t151.5 402.5t-151.5 402.5t-374.5 150.5t-374.5 -150.5t-151.5 -402.5zM506 1817h192l181 -297h-148z" />
<glyph unicode="&#xd3;" horiz-adv-x="1609" d="M76 704.5q0 329.5 211 529.5t518 200t518 -200t211 -529.5t-211 -529.5t-518 -200t-518 200t-211 529.5zM279 709q0 -250 151.5 -401.5t374.5 -151.5t374.5 150.5t151.5 402.5t-151.5 402.5t-374.5 150.5t-374.5 -150.5t-151.5 -402.5zM731 1520l182 297h191l-225 -297 h-148z" />
<glyph unicode="&#xd4;" horiz-adv-x="1609" d="M76 704.5q0 329.5 211 529.5t518 200t518 -200t211 -529.5t-211 -529.5t-518 -200t-518 200t-211 529.5zM279 709q0 -250 151.5 -401.5t374.5 -151.5t374.5 150.5t151.5 402.5t-151.5 402.5t-374.5 150.5t-374.5 -150.5t-151.5 -402.5zM537 1520l188 297h160l188 -297 h-143l-125 202l-125 -202h-143z" />
<glyph unicode="&#xd5;" horiz-adv-x="1609" d="M76 704.5q0 329.5 211 529.5t518 200t518 -200t211 -529.5t-211 -529.5t-518 -200t-518 200t-211 529.5zM279 709q0 -250 151.5 -401.5t374.5 -151.5t374.5 150.5t151.5 402.5t-151.5 402.5t-374.5 150.5t-374.5 -150.5t-151.5 -402.5zM485 1587q6 82 61.5 135.5 t127.5 53.5q20 0 40.5 -3.5t37 -9.5t26.5 -11l25 -12q14 -7 16 -9q2 0 27.5 -16.5t48.5 -25t45 -8.5q33 0 57.5 26t30.5 60l96 -20q-4 -82 -60 -135t-128 -53q-20 0 -41 3t-37 9t-27 11l-24 12q-14 7 -16 10q-2 0 -28 16t-48.5 24.5t-44.5 8.5q-33 0 -57.5 -25.5 t-30.5 -60.5z" />
<glyph unicode="&#xd6;" horiz-adv-x="1609" d="M76 704.5q0 329.5 211 529.5t518 200t518 -200t211 -529.5t-211 -529.5t-518 -200t-518 200t-211 529.5zM279 709q0 -250 151.5 -401.5t374.5 -151.5t374.5 150.5t151.5 402.5t-151.5 402.5t-374.5 150.5t-374.5 -150.5t-151.5 -402.5zM541 1661q0 47 31.5 77.5 t76.5 30.5t76 -30.5t31 -77.5q0 -49 -31 -80t-76 -31t-76.5 31t-31.5 80zM854 1661q0 47 32 77.5t77 30.5t75.5 -30.5t30.5 -77.5q0 -49 -30.5 -80t-75.5 -31t-77 31t-32 80z" />
<glyph unicode="&#xd7;" horiz-adv-x="1366" d="M166 295l409 410l-409 409l104 111l414 -412l412 412l106 -111l-409 -409l409 -410l-106 -111l-412 412l-414 -412z" />
<glyph unicode="&#xd8;" horiz-adv-x="1609" d="M76 705q0 330 211 529.5t518 199.5q272 0 469 -154l162 166l98 -98l-162 -166q162 -190 162 -477q0 -330 -210 -530t-519 -200q-270 0 -467 156l-160 -164l-98 99l158 161q-162 195 -162 478zM279 709q0 -199 100 -338l764 776q-143 115 -338 115q-223 0 -374.5 -150.5 t-151.5 -402.5zM473 268q145 -113 332 -112q223 0 374.5 150.5t151.5 402.5q0 195 -96 335z" />
<glyph unicode="&#xd9;" horiz-adv-x="1366" d="M145 578v835h201v-817q0 -76 3 -120t17.5 -101.5t45.5 -95.5q92 -125 272 -125q176 0 272 125q31 39 45.5 96t17.5 102t3 119v817h199v-835q0 -150 -22.5 -250.5t-90.5 -180.5q-150 -172 -424 -172q-276 0 -424 172q-68 80 -91.5 180.5t-23.5 250.5zM422 1817h192 l183 -297h-150z" />
<glyph unicode="&#xda;" horiz-adv-x="1366" d="M145 578v835h201v-817q0 -76 3 -120t17.5 -101.5t45.5 -95.5q92 -125 272 -125q176 0 272 125q31 39 45.5 96t17.5 102t3 119v817h199v-835q0 -150 -22.5 -250.5t-90.5 -180.5q-150 -172 -424 -172q-276 0 -424 172q-68 80 -91.5 180.5t-23.5 250.5zM571 1520l181 297 h192l-225 -297h-148z" />
<glyph unicode="&#xdb;" horiz-adv-x="1366" d="M145 578v835h201v-817q0 -76 3 -120t17.5 -101.5t45.5 -95.5q92 -125 272 -125q176 0 272 125q31 39 45.5 96t17.5 102t3 119v817h199v-835q0 -150 -22.5 -250.5t-90.5 -180.5q-150 -172 -424 -172q-276 0 -424 172q-68 80 -91.5 180.5t-23.5 250.5zM416 1520l186 297 h162l186 -297h-143l-123 202l-125 -202h-143z" />
<glyph unicode="&#xdc;" horiz-adv-x="1366" d="M145 578v835h201v-817q0 -76 3 -120t17.5 -101.5t45.5 -95.5q92 -125 272 -125q176 0 272 125q31 39 45.5 96t17.5 102t3 119v817h199v-835q0 -150 -22.5 -250.5t-90.5 -180.5q-150 -172 -424 -172q-276 0 -424 172q-68 80 -91.5 180.5t-23.5 250.5zM420 1661 q0 49 30.5 78.5t75.5 29.5t77 -30.5t32 -77.5q0 -49 -32 -80t-77 -31t-75.5 31t-30.5 80zM733 1661q0 47 31 77.5t76 30.5t76.5 -30.5t31.5 -77.5q0 -49 -31.5 -80t-76.5 -31t-76 31t-31 80z" />
<glyph unicode="&#xdd;" horiz-adv-x="1177" d="M-2 1413h223l367 -649l368 649h224l-492 -821v-592h-199v592zM475 1520l182 297h191l-225 -297h-148z" />
<glyph unicode="&#xde;" horiz-adv-x="1079" d="M156 0v1413h198v-266h181q223 0 344 -100q135 -119 135 -304q0 -186 -135 -303q-121 -100 -344 -100h-181v-340h-198zM354 500h162q127 0 205 55q88 63 88 188q0 127 -88 187q-74 55 -205 55h-162v-485z" />
<glyph unicode="&#xdf;" horiz-adv-x="1144" d="M145 0v915q0 207 31 287q39 102 123 160q102 72 264 72q170 0 273.5 -91.5t103.5 -224.5q0 -117 -62.5 -194.5t-127.5 -87.5v-5q131 -20 228 -129.5t97 -277.5q0 -201 -136 -319.5t-364 -118.5l-116 12l12 154q39 -10 96 -11q127 0 219.5 74t92.5 217q0 147 -91.5 225 t-242.5 78h-62v150h58q106 0 162.5 56t56.5 157q0 92 -64.5 142t-148.5 50q-111 0 -166 -78q-41 -66 -41 -206v-1006h-195z" />
<glyph unicode="&#xe0;" horiz-adv-x="1007" d="M53 279q0 139 102.5 213.5t278.5 82.5l260 11v39q0 106 -65.5 163.5t-175.5 57.5q-158 0 -293 -84l-60 131q172 98 365 98q211 0 321 -110q104 -109 105 -316v-565h-191l-2 123q-137 -145 -309 -146q-141 0 -238.5 82.5t-97.5 219.5zM219 1413h193l180 -297h-148z M248 285q0 -72 53 -120t148 -48q154 0 247 141v209l-227 -14q-221 -12 -221 -168z" />
<glyph unicode="&#xe1;" horiz-adv-x="1007" d="M53 279q0 139 102.5 213.5t278.5 82.5l260 11v39q0 106 -65.5 163.5t-175.5 57.5q-158 0 -293 -84l-60 131q172 98 365 98q211 0 321 -110q104 -109 105 -316v-565h-191l-2 123q-137 -145 -309 -146q-141 0 -238.5 82.5t-97.5 219.5zM248 285q0 -72 53 -120t148 -48 q154 0 247 141v209l-227 -14q-221 -12 -221 -168zM358 1116l183 297h190l-225 -297h-148z" />
<glyph unicode="&#xe2;" horiz-adv-x="1007" d="M53 279q0 139 102.5 213.5t278.5 82.5l260 11v39q0 106 -65.5 163.5t-175.5 57.5q-158 0 -293 -84l-60 131q172 98 365 98q211 0 321 -110q104 -109 105 -316v-565h-191l-2 123q-137 -145 -309 -146q-141 0 -238.5 82.5t-97.5 219.5zM213 1116l186 297h162l187 -297h-144 l-125 205l-123 -205h-143zM248 285q0 -72 53 -120t148 -48q154 0 247 141v209l-227 -14q-221 -12 -221 -168z" />
<glyph unicode="&#xe3;" horiz-adv-x="1007" d="M53 279q0 139 102.5 213.5t278.5 82.5l260 11v39q0 106 -65.5 163.5t-175.5 57.5q-158 0 -293 -84l-60 131q172 98 365 98q211 0 321 -110q104 -109 105 -316v-565h-191l-2 123q-137 -145 -309 -146q-141 0 -238.5 82.5t-97.5 219.5zM188 1190q6 82 61.5 136t127.5 54 q27 0 53.5 -6t39.5 -12t34 -19l20 -10q2 -2 21 -12l30 -17q12 -7 32 -13.5t36 -6.5q35 0 59.5 24.5t30.5 61.5l96 -20q-6 -82 -61 -135.5t-127 -53.5q-20 0 -40.5 3t-37 9.5t-26.5 11.5l-25 12q-14 7 -16 9t-22 14l-31 17q-11 6 -31.5 13t-36.5 7q-35 0 -58.5 -24.5 t-31.5 -63.5zM248 285q0 -72 53 -120t148 -48q154 0 247 141v209l-227 -14q-221 -12 -221 -168z" />
<glyph unicode="&#xe4;" horiz-adv-x="1007" d="M53 279q0 139 102.5 213.5t278.5 82.5l260 11v39q0 106 -65.5 163.5t-175.5 57.5q-158 0 -293 -84l-60 131q172 98 365 98q211 0 321 -110q104 -109 105 -316v-565h-191l-2 123q-137 -145 -309 -146q-141 0 -238.5 82.5t-97.5 219.5zM213 1264q0 49 31.5 79.5t77 30.5 t76 -30.5t30.5 -80t-30.5 -79t-76 -29.5t-77 31t-31.5 78zM248 285q0 -72 53 -120t148 -48q154 0 247 141v209l-227 -14q-221 -12 -221 -168zM526 1264q0 49 31 79.5t76 30.5t76.5 -30.5t31.5 -79.5q0 -47 -31.5 -78t-76.5 -31t-76 31t-31 78z" />
<glyph unicode="&#xe5;" horiz-adv-x="1007" d="M53 279q0 139 102.5 213.5t278.5 82.5l260 11v39q0 106 -65.5 163.5t-175.5 57.5q-158 0 -293 -84l-60 131q172 98 365 98q211 0 321 -110q104 -109 105 -316v-565h-191l-2 123q-137 -145 -309 -146q-141 0 -238.5 82.5t-97.5 219.5zM248 285q0 -72 53 -120t148 -48 q154 0 247 141v209l-227 -14q-221 -12 -221 -168zM274 1305q0 84 59.5 139t145.5 55t144.5 -55t58.5 -139t-58.5 -139.5t-144.5 -55.5t-145.5 55.5t-59.5 139.5zM373 1305q0 -45 29.5 -77t76.5 -32q45 0 75 32t30 77t-30 75.5t-75 30.5q-47 0 -76.5 -30.5t-29.5 -75.5z" />
<glyph unicode="&#xe6;" horiz-adv-x="1703" d="M53 279q0 139 103.5 214.5t281.5 81.5l256 11v41q0 106 -65.5 162.5t-175.5 56.5q-158 0 -293 -84l-60 131q172 98 365 98q188 0 283 -88q25 -23 42 -45t21 -35l6 -10q123 178 367 178q203 0 330.5 -131t127.5 -334l-4 -86h-751q8 -143 93 -226t222 -83q51 0 99.5 9.5 t86 26.5t62.5 30.5t49 29.5l25 17l82 -113l-13 -12q-12 -10 -28.5 -22.5t-42 -30t-59 -32t-75.5 -27.5t-96.5 -21.5t-113.5 -8.5q-244 0 -390 189q-4 6 -6 8q-82 -98 -171 -147.5t-220 -49.5q-145 0 -241.5 82.5t-96.5 219.5zM248 285q0 -72 53 -120t145 -48q90 0 169 51 t110 113q-31 76 -31 186l-225 -14q-221 -10 -221 -168zM891 571h565q0 98 -72.5 188.5t-205.5 90.5q-135 0 -209 -88.5t-78 -190.5z" />
<glyph unicode="&#xe7;" horiz-adv-x="972" d="M70 485q0 227 147.5 366.5t349.5 139.5q117 0 211 -35.5t122 -59.5t44 -44l-70 -143q-119 119 -290 118q-133 0 -224.5 -93t-91.5 -242q0 -154 88 -250.5t230 -96.5q172 0 284 113l11 10l69 -143l-13 -12.5l-18.5 -17.5t-24.5 -20.5t-34 -22.5l-42 -22 q-26 -13 -51.5 -21.5t-60 -15.5t-71.5 -11l-152 -279h-192l194 281q-178 25 -296.5 160.5t-118.5 340.5z" />
<glyph unicode="&#xe8;" horiz-adv-x="1083" d="M70 487q0 225 142 364.5t351 139.5q203 0 332 -130t129 -335l-6 -86h-750q8 -143 93 -226t221 -83q37 0 73.5 5t66.5 14.5t55.5 19.5t47.5 24l36 21q13 8 26.5 18.5t15.5 10.5l82 -113l-8 -8q-8 -8 -18 -15l-25 -21q-16 -13 -37 -25l-46 -24q-26 -13 -57.5 -23.5 t-66.5 -18.5t-79 -13.5t-91 -5.5q-217 0 -352 139.5t-135 370.5zM270 571h568q-2 98 -75 188.5t-206 90.5t-207 -87.5t-80 -191.5zM299 1413h193l182 -297h-150z" />
<glyph unicode="&#xe9;" horiz-adv-x="1083" d="M70 487q0 225 142 364.5t351 139.5q203 0 332 -130t129 -335l-6 -86h-750q8 -143 93 -226t221 -83q37 0 73.5 5t66.5 14.5t55.5 19.5t47.5 24l36 21q13 8 26.5 18.5t15.5 10.5l82 -113l-8 -8q-8 -8 -18 -15l-25 -21q-16 -13 -37 -25l-46 -24q-26 -13 -57.5 -23.5 t-66.5 -18.5t-79 -13.5t-91 -5.5q-217 0 -352 139.5t-135 370.5zM270 571h568q-2 98 -75 188.5t-206 90.5t-207 -87.5t-80 -191.5zM446 1116l183 297h192l-225 -297h-150z" />
<glyph unicode="&#xea;" horiz-adv-x="1083" d="M70 487q0 225 142 364.5t351 139.5q203 0 332 -130t129 -335l-6 -86h-750q8 -143 93 -226t221 -83q37 0 73.5 5t66.5 14.5t55.5 19.5t47.5 24l36 21q13 8 26.5 18.5t15.5 10.5l82 -113l-8 -8q-8 -8 -18 -15l-25 -21q-16 -13 -37 -25l-46 -24q-26 -13 -57.5 -23.5 t-66.5 -18.5t-79 -13.5t-91 -5.5q-217 0 -352 139.5t-135 370.5zM270 571h568q-2 98 -75 188.5t-206 90.5t-207 -87.5t-80 -191.5zM293 1116l186 297h162l186 -297h-143l-123 205l-125 -205h-143z" />
<glyph unicode="&#xeb;" horiz-adv-x="1083" d="M70 487q0 225 142 364.5t351 139.5q203 0 332 -130t129 -335l-6 -86h-750q8 -143 93 -226t221 -83q37 0 73.5 5t66.5 14.5t55.5 19.5t47.5 24l36 21q13 8 26.5 18.5t15.5 10.5l82 -113l-8 -8q-8 -8 -18 -15l-25 -21q-16 -13 -37 -25l-46 -24q-26 -13 -57.5 -23.5 t-66.5 -18.5t-79 -13.5t-91 -5.5q-217 0 -352 139.5t-135 370.5zM270 571h568q-2 98 -75 188.5t-206 90.5t-207 -87.5t-80 -191.5zM299 1264q0 49 31.5 79.5t77 30.5t76 -30.5t30.5 -80t-30.5 -79t-76 -29.5t-77 31t-31.5 78zM612 1264q0 49 31 79.5t76 30.5t76.5 -30.5 t31.5 -79.5q0 -47 -31.5 -78t-76.5 -31t-76 31t-31 78z" />
<glyph unicode="&#xec;" horiz-adv-x="483" d="M-35 1413h193l182 -297h-150zM143 0v973h197v-973h-197z" />
<glyph unicode="&#xed;" horiz-adv-x="483" d="M143 0v973h197v-973h-197zM143 1116l183 297h190l-225 -297h-148z" />
<glyph unicode="&#xee;" horiz-adv-x="483" d="M-27 1116l189 297h160l188 -297h-143l-125 205l-125 -205h-144zM143 0v973h197v-973h-197z" />
<glyph unicode="&#xef;" horiz-adv-x="483" d="M-23 1264q0 49 32 79.5t77 30.5t76 -30.5t31 -79.5q0 -47 -31 -78t-76 -31t-77 31t-32 78zM143 0v973h197v-973h-197zM291 1263.5q0 49.5 30.5 80t75.5 30.5t77 -30.5t32 -79.5q0 -47 -32 -78t-77 -31t-75.5 29.5t-30.5 79z" />
<glyph unicode="&#xf0;" horiz-adv-x="1169" d="M70 475q0 207 146 347.5t339 140.5q168 0 272 -97q-90 180 -280 348l-238 -147l-57 92l207 129q-111 86 -201 142l129 88q113 -68 215 -150l248 154l57 -95l-217 -135q123 -104 205 -223q203 -281 203 -594q0 -215 -148.5 -356.5t-369.5 -141.5q-219 0 -364.5 141.5 t-145.5 356.5zM268 479.5q0 -143.5 88 -239t227.5 -95.5t227.5 95.5t88 239t-88 239.5t-227.5 96t-227.5 -96t-88 -239.5z" />
<glyph unicode="&#xf1;" horiz-adv-x="1107" d="M135 0v973h197l-2 -154h6q41 76 117.5 124t179.5 48q193 0 270.5 -110.5t77.5 -305.5v-575h-197v543q0 141 -41 213.5t-161 72.5q-129 0 -189.5 -94t-60.5 -246v-489h-197zM231 1190q6 82 61.5 136t127.5 54q27 0 52.5 -6t38.5 -12t32.5 -17.5t21.5 -11.5t27.5 -16.5 t48.5 -24.5t45 -8q70 0 90 86l96 -20q-6 -82 -61 -135.5t-127 -53.5q-23 0 -42 3t-36.5 9.5t-27.5 11.5l-25 12q-14 7 -16 9q-80 51 -119 51q-35 0 -59.5 -25.5t-30.5 -62.5z" />
<glyph unicode="&#xf2;" horiz-adv-x="1169" d="M70 483.5q0 223.5 147.5 365.5t368.5 142q219 0 366.5 -142t147.5 -365.5t-147.5 -365t-366.5 -141.5q-221 0 -368.5 141.5t-147.5 365zM268 489.5q0 -147.5 87 -246t230.5 -98.5t229.5 98.5t86 246t-86 244.5t-229.5 97t-230.5 -97t-87 -244.5zM322 1413h192l180 -297 h-147z" />
<glyph unicode="&#xf3;" horiz-adv-x="1169" d="M70 483.5q0 223.5 147.5 365.5t368.5 142q219 0 366.5 -142t147.5 -365.5t-147.5 -365t-366.5 -141.5q-221 0 -368.5 141.5t-147.5 365zM268 489.5q0 -147.5 87 -246t230.5 -98.5t229.5 98.5t86 246t-86 244.5t-229.5 97t-230.5 -97t-87 -244.5zM475 1116l182 297h191 l-225 -297h-148z" />
<glyph unicode="&#xf4;" horiz-adv-x="1169" d="M70 483.5q0 223.5 147.5 365.5t368.5 142q219 0 366.5 -142t147.5 -365.5t-147.5 -365t-366.5 -141.5q-221 0 -368.5 141.5t-147.5 365zM268 489.5q0 -147.5 87 -246t230.5 -98.5t229.5 98.5t86 246t-86 244.5t-229.5 97t-230.5 -97t-87 -244.5zM317 1116l187 297h162 l186 -297h-143l-123 205l-125 -205h-144z" />
<glyph unicode="&#xf5;" horiz-adv-x="1169" d="M70 483.5q0 223.5 147.5 365.5t368.5 142q219 0 366.5 -142t147.5 -365.5t-147.5 -365t-366.5 -141.5q-221 0 -368.5 141.5t-147.5 365zM264 1190q6 82 61.5 136t127.5 54q59 0 145 -47q2 0 27.5 -16.5t48 -24.5t45.5 -8q35 0 59.5 24.5t30.5 61.5l96 -20 q-6 -82 -61.5 -135.5t-126.5 -53.5q-23 0 -42.5 3t-35.5 9.5l-27.5 11.5t-24 12t-16.5 9q-2 2 -21 14l-31 17q-11 6 -31.5 13t-36.5 7q-35 0 -58.5 -24.5t-32.5 -63.5zM268 489.5q0 -147.5 87 -246t230.5 -98.5t229.5 98.5t86 246t-86 244.5t-229.5 97t-230.5 -97 t-87 -244.5z" />
<glyph unicode="&#xf6;" horiz-adv-x="1169" d="M70 483.5q0 223.5 147.5 365.5t368.5 142q219 0 366.5 -142t147.5 -365.5t-147.5 -365t-366.5 -141.5q-221 0 -368.5 141.5t-147.5 365zM268 489.5q0 -147.5 87 -246t230.5 -98.5t229.5 98.5t86 246t-86 244.5t-229.5 97t-230.5 -97t-87 -244.5zM322 1264q0 49 30.5 79.5 t75.5 30.5t77 -30.5t32 -79.5q0 -47 -32 -78t-77 -31t-75.5 31t-30.5 78zM633 1264q0 49 31.5 79.5t76.5 30.5t76 -30.5t31 -80t-31 -79t-76 -29.5t-76.5 31t-31.5 78z" />
<glyph unicode="&#xf7;" horiz-adv-x="1366" d="M147 631v151h1072v-151h-1072zM557 369q0 53 37 90t90 37q51 0 88 -37t37 -90.5t-36 -89t-89 -35.5t-90 37t-37 88zM557 1044q0 51 38 88t89 37t88 -36.5t37 -88.5q0 -53 -37 -89.5t-88 -36.5q-53 0 -90 36.5t-37 89.5z" />
<glyph unicode="&#xf8;" horiz-adv-x="1169" d="M55 45l119 121q-104 133 -104 317q0 223 147.5 365.5t368.5 142.5q180 0 319 -100l121 121l88 -86l-121 -121q106 -133 107 -322q0 -225 -146.5 -365.5t-367.5 -140.5q-186 0 -324 103l-121 -119zM268 489q0 -102 45 -186l467 465q-80 63 -194 63q-143 0 -230.5 -97.5 t-87.5 -244.5zM391 209q80 -63 195 -64q143 0 229 98.5t86 245.5q0 102 -43 183z" />
<glyph unicode="&#xf9;" horiz-adv-x="1097" d="M127 391v584h195v-576q0 -119 42 -188.5t160 -69.5q121 0 181.5 89t60.5 223v522h197v-975h-191l-2 139q-41 -74 -121 -118t-180 -44q-182 0 -270 113q-72 96 -72 301zM270 1413h193l180 -297h-147z" />
<glyph unicode="&#xfa;" horiz-adv-x="1097" d="M127 391v584h195v-576q0 -119 42 -188.5t160 -69.5q121 0 181.5 89t60.5 223v522h197v-975h-191l-2 139q-41 -74 -121 -118t-180 -44q-182 0 -270 113q-72 96 -72 301zM442 1116l183 297h192l-225 -297h-150z" />
<glyph unicode="&#xfb;" horiz-adv-x="1097" d="M127 391v584h195v-576q0 -119 42 -188.5t160 -69.5q121 0 181.5 89t60.5 223v522h197v-975h-191l-2 139q-41 -74 -121 -118t-180 -44q-182 0 -270 113q-72 96 -72 301zM276 1116l189 297h160l188 -297h-143l-125 205l-125 -205h-144z" />
<glyph unicode="&#xfc;" horiz-adv-x="1097" d="M127 391v584h195v-576q0 -119 42 -188.5t160 -69.5q121 0 181.5 89t60.5 223v522h197v-975h-191l-2 139q-41 -74 -121 -118t-180 -44q-182 0 -270 113q-72 96 -72 301zM281 1264q0 49 31.5 79.5t76.5 30.5t76 -30.5t31 -80t-31 -79t-76 -29.5t-76.5 31t-31.5 78z M594 1264q0 49 30.5 79.5t75.5 30.5t77 -30.5t32 -79.5q0 -47 -32 -78t-77 -31t-75.5 31t-30.5 78z" />
<glyph unicode="&#xfd;" horiz-adv-x="980" d="M2 975l205 -2l289 -756l286 758l203 -2l-469 -1143q-49 -123 -110.5 -174t-145.5 -51q-49 0 -95 9t-67 17l-22 9l39 159q53 -23 102 -22q23 0 33 2t28.5 11t35 33.5t30.5 67.5l47 129zM383 1116l182 297h193l-226 -297h-149z" />
<glyph unicode="&#xfe;" horiz-adv-x="1222" d="M145 -381v1794h195v-592h4q119 170 340 170q211 0 340 -142t129 -362q0 -221 -130 -365.5t-343 -144.5q-221 0 -336 175h-4v-533h-195zM332 489.5q0 -149.5 84 -247t227 -97.5t226 97.5t83 247t-83 245.5t-226 96t-227 -96t-84 -245.5z" />
<glyph unicode="&#xff;" horiz-adv-x="980" d="M2 975l205 -2l289 -756l286 758l203 -2l-469 -1143q-49 -123 -110.5 -174t-145.5 -51q-49 0 -95 9t-67 17l-22 9l39 159q53 -23 102 -22q23 0 33 2t28.5 11t35 33.5t30.5 67.5l47 129zM231 1272q0 49 32 79.5t77 30.5t75.5 -30.5t30.5 -79.5q0 -47 -30.5 -79t-75.5 -32 t-77 31t-32 80zM545 1272q0 49 30.5 79.5t75.5 30.5t77 -30.5t32 -79.5t-32 -80t-77 -31t-75.5 31t-30.5 80z" />
<glyph unicode="&#x152;" horiz-adv-x="2031" d="M76 704.5q0 329.5 209 529.5t512 200q211 0 370 -97v76h760v-166h-569v-422h534v-166h-534v-491h586v-168h-775v76q-152 -100 -372 -101q-303 0 -512 200t-209 529.5zM279 709q0 -250 150.5 -401.5t367.5 -151.5q219 0 362 125v856q-143 125 -362 125t-368.5 -150.5 t-149.5 -402.5z" />
<glyph unicode="&#x153;" horiz-adv-x="1906" d="M70 483.5q0 223.5 147.5 365.5t368.5 142q137 0 241.5 -58.5t165.5 -158.5q135 217 393 217q203 0 331 -130t128 -335l-4 -86h-751q8 -143 92 -226t221 -83q43 0 86 8t73.5 18.5t62.5 26t47.5 24.5t33.5 21l18 15l82 -113l-8 -8l-17 -16.5t-25.5 -20.5t-36 -23.5 t-45 -24.5t-57.5 -23.5t-66.5 -18.5t-79 -13.5t-91.5 -5.5q-266 0 -389 216q-129 -215 -405 -216q-221 0 -368.5 141.5t-147.5 365zM268 489.5q0 -147.5 87 -246t230.5 -98.5t229.5 98.5t86 246t-86 244.5t-229.5 97t-230.5 -97t-87 -244.5zM1094 571h565q-2 98 -74 188.5 t-205 90.5q-135 0 -208.5 -88.5t-77.5 -190.5z" />
<glyph unicode="&#x178;" horiz-adv-x="1177" d="M-2 1413h223l367 -649l368 649h224l-492 -821v-592h-199v592zM324 1675q0 49 31.5 80t76.5 31t76 -31t31 -80t-31 -79.5t-76 -30.5t-76.5 30.5t-31.5 79.5zM639 1675q0 49 30.5 80t76 31t77 -31t31.5 -80t-31.5 -79.5t-77 -30.5t-76 30.5t-30.5 79.5z" />
<glyph unicode="&#x2c6;" horiz-adv-x="686" d="M76 1116l186 297h162l186 -297h-143l-125 205l-123 -205h-143z" />
<glyph unicode="&#x2dc;" horiz-adv-x="686" d="M23 1190q6 82 61 136t127 54q27 0 52.5 -6t38.5 -12t32.5 -16.5t21.5 -12.5q2 0 28 -16.5t48.5 -24.5t44.5 -8q70 0 90 86l97 -20q-6 -82 -61.5 -135.5t-127.5 -53.5q-63 0 -145 45q-2 2 -22 14l-30 17q-11 6 -32 13t-37 7q-35 0 -59.5 -25.5t-30.5 -62.5z" />
<glyph unicode="&#x2013;" horiz-adv-x="946" d="M0 483v154h946v-154h-946z" />
<glyph unicode="&#x2014;" horiz-adv-x="1740" d="M12 483v154h1717v-154h-1717z" />
<glyph unicode="&#x2018;" horiz-adv-x="638" d="M158 975l182 438h156l-138 -438h-200z" />
<glyph unicode="&#x2019;" horiz-adv-x="638" d="M143 975l138 438h200l-182 -438h-156z" />
<glyph unicode="&#x201a;" horiz-adv-x="638" d="M143 -238l138 437h200l-182 -437h-156z" />
<glyph unicode="&#x201c;" horiz-adv-x="1001" d="M162 975l180 438h152l-138 -438h-194zM522 975l183 438h149l-137 -438h-195z" />
<glyph unicode="&#x201d;" horiz-adv-x="1001" d="M145 975l140 438h194l-182 -438h-152zM506 975l139 438h195l-183 -438h-151z" />
<glyph unicode="&#x201e;" horiz-adv-x="1001" d="M145 -238l140 437h194l-182 -437h-152zM506 -238l139 437h195l-183 -437h-151z" />
<glyph unicode="&#x2022;" horiz-adv-x="1107" d="M246 747.5q0 124.5 92 217t217 92.5t216 -92.5t91 -217t-91 -217t-216 -92.5t-217 92.5t-92 217z" />
<glyph unicode="&#x2026;" horiz-adv-x="1933" d="M211 108.5q0 55.5 37 89t94 33.5t94 -33.5t37 -89t-37 -90t-94 -34.5t-94 34.5t-37 90zM836 108.5q0 55.5 36.5 89t94 33.5t94.5 -33.5t37 -89t-37 -90t-94.5 -34.5t-94 34.5t-36.5 90zM1460 108.5q0 55.5 37 89t94 33.5q55 0 93 -33.5t38 -89t-37.5 -90t-93.5 -34.5 q-57 0 -94 34.5t-37 90z" />
<glyph unicode="&#x2039;" horiz-adv-x="649" d="M113 487l305 406l106 -80l-241 -326l243 -327l-108 -80z" />
<glyph unicode="&#x203a;" horiz-adv-x="649" d="M123 815l110 78l304 -406l-304 -407l-108 82l242 325z" />
<glyph unicode="&#x20ac;" d="M72 510v133l123 2q-2 39 -2 72v69h-121v134h139q35 223 176 368q139 145 348 146q201 0 361 -140l-68 -153q-104 133 -289 133q-123 0 -210 -88t-113 -266h510v-134h-529v-69l2 -74h527v-133h-510q20 -172 107 -267.5t218 -95.5q166 0 297 142l6 6l82 -131l-8 -10 q-6 -10 -12 -17.5t-19.5 -22t-26.5 -25.5t-33.5 -26.5t-42 -26.5t-50.5 -23.5t-58.5 -19.5t-67.5 -12.5t-77 -5.5q-205 0 -343 141.5t-179 393.5h-137z" />
<glyph unicode="&#x2122;" horiz-adv-x="1740" d="M100 1298v115h592v-115h-229v-700h-133v700h-230zM737 598l64 815h180l199 -612h4l196 612h183l63 -815h-133l-45 641h-4l-211 -641h-105l-208 641h-7l-43 -641h-133z" />
<glyph unicode="&#xe000;" horiz-adv-x="975" d="M0 975h975v-975h-975v975z" />
<glyph unicode="&#xfb01;" horiz-adv-x="1062" d="M33 813v158h139v98q0 186 66 260q94 106 241 107q37 0 75 -5.5t58 -11.5l21 -6l-15 -145q-47 18 -102 18q-45 0 -74.5 -17.5t-44 -38t-21.5 -63.5t-8 -64.5t-1 -72.5v-59h231v-158h-231v-813h-195v813h-139zM694 1292.5q0 53.5 36 87t91 33.5q57 0 93 -33.5t36 -87 t-35.5 -87.5t-93.5 -34q-55 0 -91 34t-36 87.5zM725 0v973h195v-973h-195z" />
<glyph unicode="&#xfb02;" horiz-adv-x="1067" d="M33 813v158h139v106q0 154 61 246q82 113 246 113q43 0 81 -5.5t54 -11.5l19 -6l-15 -145q-41 18 -102 18q-88 0 -118.5 -54t-30.5 -153v-108h231v-158h-231v-813h-195v813h-139zM725 0v1413h197v-1413h-197z" />
<glyph unicode="&#xfb03;" horiz-adv-x="1605" d="M33 813v158h139v98q0 178 66 260q86 106 233 107q49 0 91 -5.5t61 -11.5l16 -6l-12 -145q-55 18 -111 18q-88 0 -118.5 -54t-30.5 -153v-108h366v98q0 178 66 260q86 106 233 107q49 0 91 -5.5t61 -11.5l16 -6l-12 -145q-55 18 -111 18q-88 0 -118.5 -54t-30.5 -153v-108 h231v-158h-231v-813h-195v813h-366v-813h-195v813h-139zM1235 1292.5q0 53.5 36 87t93 33.5q55 0 91 -33.5t36 -87t-36 -87.5t-91 -34q-57 0 -93 34t-36 87.5zM1266 0v973h196v-973h-196z" />
<glyph unicode="&#xfb04;" horiz-adv-x="1607" d="M33 813v158h139v98q0 178 66 260q86 106 233 107q49 0 91 -5.5t61 -11.5l16 -6l-12 -145q-55 18 -111 18q-88 0 -118.5 -54t-30.5 -153v-108h366v98q0 178 66 260q86 106 233 107q49 0 91 -5.5t61 -11.5l16 -6l-12 -145q-55 18 -111 18q-88 0 -118.5 -54t-30.5 -153v-108 h231v-158h-231v-813h-195v813h-366v-813h-195v813h-139zM1268 0v1413h194v-1413h-194z" />
</font>
</defs>
</svg>
