<svg width="216" height="182" viewBox="0 0 216 182" fill="none" xmlns="http://www.w3.org/2000/svg">
<g opacity="0.3">
<path d="M32.4791 27.9016C33.2816 27.1437 34.1785 26.5279 35.1463 26.0305V22.9987L40.0323 21.9092L41.3306 24.6567C42.4163 24.7041 43.4785 24.8936 44.5407 25.2252L46.6887 23.0935L50.9138 25.7699L49.8988 28.6122C50.6541 29.4175 51.2678 30.3176 51.7635 31.2887H54.7848L55.8706 36.1916L53.1325 37.4943C53.0853 38.5838 52.8965 39.6497 52.566 40.7155L54.6904 42.8709L52.0232 47.1106L49.1907 46.0922C48.3881 46.8501 47.4912 47.4659 46.5234 47.9633V50.9951L41.6374 52.0846L40.3392 49.3371C39.2534 49.2897 38.1912 49.1002 37.129 48.7686L34.9811 50.9003L30.756 48.2239L31.7709 45.3816C31.0156 44.5763 30.4019 43.6762 29.9062 42.7051H26.8849L25.7991 37.8022L28.5372 36.4995C28.5844 35.41 28.7732 34.3441 29.1037 33.2783L26.9793 31.1229L29.6466 26.8832L32.5027 27.9016H32.4791ZM36.4209 33.8941C34.8395 36.4048 35.5712 39.7207 38.0732 41.3077C40.5752 42.8946 43.8798 42.1604 45.4612 39.6497C47.0427 37.139 46.311 33.823 43.809 32.2361C41.3069 30.6492 38.0024 31.3834 36.4209 33.8941Z" fill="#B1C9E3"/>
</g>
<path d="M159.705 55.8979H55.7054C52.2769 55.8979 49.4976 58.6869 49.4976 62.1273V126.907C49.4976 130.348 52.2769 133.137 55.7054 133.137H159.705C163.133 133.137 165.912 130.348 165.912 126.907V62.1273C165.912 58.6869 163.133 55.8979 159.705 55.8979Z" fill="#F7F7F7"/>
<path d="M44.942 128.163H171.058V128.471C171.058 132.023 168.178 134.937 164.614 134.937H51.3859C47.8453 134.937 44.942 132.047 44.942 128.471V128.163Z" fill="#F7F7F7"/>
<path d="M162.443 58.9771H52.6133V124.207H162.443V58.9771Z" fill="#122F48"/>
<path d="M96.139 127.334L97.7913 129.939H119.814L121.324 127.357L96.139 127.334Z" fill="#122F48"/>
<path d="M159.02 61.1798H56.2719C55.5027 61.1798 54.8792 61.8055 54.8792 62.5773V122.597C54.8792 123.368 55.5027 123.994 56.2719 123.994H159.02C159.789 123.994 160.413 123.368 160.413 122.597V62.5773C160.413 61.8055 159.789 61.1798 159.02 61.1798Z" fill="#ECECEC"/>
<path d="M160.295 124.089H54.7612L54.8792 65.8696H160.295V124.089Z" fill="white"/>
<path d="M63.5419 63.6194C63.5419 64.0931 63.1643 64.4721 62.6922 64.4721C62.2201 64.4721 61.8424 64.0931 61.8424 63.6194C61.8424 63.1457 62.2201 62.7667 62.6922 62.7667C63.1643 62.7667 63.5419 63.1457 63.5419 63.6194Z" fill="#122F48"/>
<path d="M58.4199 63.6194C58.4199 64.0931 58.0422 64.4721 57.5701 64.4721C57.098 64.4721 56.7204 64.0931 56.7204 63.6194C56.7204 63.1457 57.098 62.7667 57.5701 62.7667C58.0422 62.7667 58.4199 63.1457 58.4199 63.6194Z" fill="#122F48"/>
<path d="M60.8747 63.6194C60.8747 64.0931 60.497 64.4721 60.0249 64.4721C59.5528 64.4721 59.1752 64.0931 59.1752 63.6194C59.1752 63.1457 59.5528 62.7667 60.0249 62.7667C60.497 62.7667 60.8747 63.1457 60.8747 63.6194Z" fill="#122F48"/>
<path d="M164.897 127.428C164.897 127.428 139.051 127.499 107.209 127.499C75.3675 127.499 49.4976 127.476 49.4976 127.428C49.4976 127.381 75.3203 127.357 107.209 127.357C139.098 127.357 164.897 127.381 164.897 127.428Z" fill="#122F48"/>
<mask id="mask0_49018_2859" style="mask-type:luminance" maskUnits="userSpaceOnUse" x="54" y="65" width="107" height="60">
<path d="M160.413 124.089H54.7612L54.8792 65.8696H160.413V124.089Z" fill="white"/>
</mask>
<g mask="url(#mask0_49018_2859)">
<mask id="mask1_49018_2859" style="mask-type:luminance" maskUnits="userSpaceOnUse" x="-8" y="29" width="194" height="132">
<path d="M185.669 29.1333H-7.31723V160.825H185.669V29.1333Z" fill="white"/>
</mask>
<g mask="url(#mask1_49018_2859)">
<path d="M185.669 29.1333H-7.31723V160.825H185.669V29.1333Z" fill="#ECF0F4"/>
<path d="M122.434 28.3517C123.142 29.157 188.242 90.479 188.242 90.479L189.375 87.7314L122.41 23.2356V28.3517H122.434Z" fill="#CEDBE7"/>
<path d="M109.027 36.1916L117.571 30.7202L187.132 95.2871L185.669 103.53L155.291 75.4149L139.452 62.6721L109.027 36.1916Z" fill="#ECF0F4"/>
<path d="M58.4434 89.1525L55.729 84.6049L53.1797 85.9787L58.6795 95.0029L61.1343 93.7002L58.4434 89.1525Z" fill="#CEDBE7"/>
<path d="M57.4757 82.6864L60.497 88.4893L64.2264 86.3576L61.1343 80.6494L57.4757 82.6864Z" fill="#CEDBE7"/>
<path d="M62.6922 78.4467L66.5868 85.884L70.7647 83.8944L67.0589 76.386L62.6922 78.4467Z" fill="#CEDBE7"/>
<path d="M65.8787 90.9053L68.3571 95.3108L61.6064 99.4795L64.9818 105.282L75.5091 98.082L72.1102 87.5656L65.8787 90.9053Z" fill="#CEDBE7"/>
<path d="M57.3577 98.6742L61.1343 105.898L58.5851 107.154L54.6904 99.9769L57.3577 98.6742Z" fill="#CEDBE7"/>
<path d="M45.4377 106.988L52.6605 103.767L55.9886 110.399L49.0255 113.786L45.4377 106.988Z" fill="#CEDBE7"/>
<path d="M54.1711 64.8275L56.3191 67.6697L59.4112 65.3959L57.1688 62.2931L54.1711 64.8275Z" fill="#CEDBE7"/>
<path d="M-9.08752 108.883C-2.87967 106.727 3.30457 104.572 9.51242 102.44C13.8556 100.924 18.3167 99.5979 22.5654 97.8215C47.9161 87.2577 69.5373 69.9198 89.5063 51.3267C97.6969 43.6999 105.769 35.8837 113.228 27.5227C113.936 26.7173 112.78 25.5568 112.048 26.3384C105.864 33.2546 99.2311 39.7918 92.5276 46.1869C80.348 57.7928 67.6726 69.1856 53.7463 78.6835C44.2339 85.1734 34.155 90.9763 23.5804 95.5713C19.7093 97.253 15.6731 98.532 11.684 99.9058C4.60279 102.369 -2.4784 104.809 -9.5596 107.272C-10.551 107.627 -10.1261 109.214 -9.11112 108.883H-9.08752Z" fill="white"/>
<path d="M99.656 27.499C104.518 32.0229 109.357 36.5232 114.22 41.0471L139.051 64.1169L146.439 70.9857C146.675 71.2226 146.935 71.4357 147.171 71.6726C147.501 71.9805 147.194 71.6726 147.312 71.791C148.752 73.449 150.003 75.2965 151.325 77.0255C153.048 79.252 154.606 81.5732 156.636 83.5391L166.101 92.6343C172.946 99.2189 179.744 105.898 186.66 112.412C186.802 112.53 186.944 112.672 187.062 112.814C187.84 113.549 188.997 112.388 188.242 111.63C182.294 105.898 176.322 100.166 170.374 94.4581L159.468 83.9654C158.572 83.1127 157.698 82.2127 156.778 81.3837C156.4 81.0521 156.707 81.3837 156.565 81.1705C155.999 80.5073 155.479 79.7731 154.96 79.0625L149.956 72.5253C149.437 71.8384 148.941 71.1041 148.351 70.4883C146.533 68.6172 144.527 66.9355 142.615 65.1591C134.566 57.6744 126.541 50.2135 118.492 42.7288C112.709 37.3522 106.997 31.8571 101.119 26.5989C101.025 26.5042 100.931 26.4331 100.836 26.3384C100.057 25.6041 98.8771 26.7884 99.656 27.5227V27.499Z" fill="white"/>
<path d="M147.548 71.9805C150.735 74.0412 153.898 75.8887 156.73 78.4704C159.681 81.1705 162.608 83.9181 165.511 86.6893C170.798 91.7106 176.038 96.803 181.42 101.753C183.851 103.98 186.283 106.206 188.832 108.291C189.658 108.954 190.838 107.793 190.012 107.106C185.102 103.056 180.476 98.6268 175.85 94.245C170.137 88.7973 164.449 83.3259 158.642 77.973C157.108 76.5519 155.574 75.1781 153.851 73.9938C152.128 72.8095 150.216 71.72 148.398 70.5357C147.501 69.9436 146.675 71.3884 147.572 71.9805H147.548Z" fill="white"/>
<path d="M-9.08754 137.661C0.613699 135.174 10.2913 132.663 19.9926 130.176C20.4174 130.058 20.8423 129.915 21.2908 129.844C20.7951 129.939 21.7629 129.844 21.9281 129.844C24.3829 129.655 26.8141 129.158 29.1981 128.542C35.8072 126.836 42.6524 124.326 48.459 120.678L78.2236 101.919C80.5132 100.474 82.8972 99.1005 85.1159 97.561C88.4913 95.2161 91.7251 92.6107 94.9824 90.1C101.096 85.3392 107.138 80.46 112.969 75.3676C118.799 70.2752 124.133 65.4433 128.712 59.6167C129.515 58.5982 130.294 57.5323 130.978 56.4191C131.545 55.5191 130.105 54.6664 129.539 55.5901C125.974 61.2983 120.734 66.0828 115.825 70.5831C109.995 75.936 103.881 80.9811 97.6969 85.884C91.9847 90.4079 86.2961 94.8845 80.1591 98.7689C70.033 105.14 59.9069 111.512 49.7808 117.907C44.8475 121.01 39.7019 123.426 34.1786 125.32C30.8504 126.457 27.4514 127.428 23.9816 127.95C22.9431 128.115 21.8573 128.092 20.8187 128.281C19.3553 128.542 17.8918 129.039 16.452 129.418L7.52966 131.716L-8.54464 135.861L-9.51241 136.097C-10.551 136.358 -10.1025 137.969 -9.06393 137.708L-9.08754 137.661Z" fill="white"/>
<path d="M67.8378 69.991L69.0889 72.1463C69.3249 72.5727 69.5609 72.999 69.8206 73.4254C69.8914 73.5675 70.1274 73.9701 69.9622 73.6148C70.1038 73.8754 70.1982 74.1596 70.3163 74.4438L72.4642 79.6547C75.3203 86.5472 78.1764 93.4634 81.0325 100.356C84.7383 109.333 88.4677 118.333 92.1735 127.31C95.4545 135.245 98.759 143.203 102.04 151.138C103.669 155.046 105.109 159.072 106.902 162.909C106.926 162.957 106.95 163.028 106.973 163.075C107.375 164.046 108.98 163.62 108.578 162.625C107.233 159.38 105.911 156.159 104.566 152.914L95.0532 129.915C91.3238 120.891 87.5944 111.867 83.8413 102.843C80.82 95.524 77.7987 88.2052 74.7538 80.8863C73.4084 77.6651 72.2518 74.3017 70.5051 71.27L69.2541 69.1146C68.7112 68.1909 67.2949 69.0198 67.8142 69.9436L67.8378 69.991Z" fill="white"/>
<path d="M74.6594 70.6541L80.9617 77.5466L90.5213 69.0672L83.9122 62.2931L74.6594 70.6541Z" fill="#CEDBE7"/>
<path d="M87.4055 59.9482L94.6047 67.3618L96.9651 65.1591L89.8131 57.7218L87.4055 59.9482Z" fill="#CEDBE7"/>
<path d="M87.5944 77.8072L93.637 84.4392L98.0745 80.5073L92.1735 73.8043L87.5944 77.8072Z" fill="#CEDBE7"/>
<path d="M95.9974 70.062L102.89 76.8834L107.563 72.4068L100.411 65.5617L95.9974 70.062Z" fill="#CEDBE7"/>
<path d="M107.422 67.6224L109.9 69.7304L112.355 67.0302L109.9 64.9933L107.422 67.6224Z" fill="#CEDBE7"/>
<path d="M89.341 97.6794L89.1286 97.2293L93.1177 94.8371L94.6047 97.1109L94.1091 97.6794L95.8321 102.109L96.5639 101.895L97.626 104.809L90.4976 107.722L87.0987 99.29L89.341 97.6794Z" fill="#CEDBE7"/>
<path d="M90.9697 111.109L97.0595 126.173L103.716 123.639L101.119 117.078L99.6796 117.741L95.9974 108.93L90.9697 111.109Z" fill="#CEDBE7"/>
<path d="M103.716 116.083L106.69 120.891L109.121 119.541L106.218 114.686L103.716 116.083Z" fill="#CEDBE7"/>
<path d="M105.699 107.154L113.771 117.362L119.129 113.478L111.269 102.914L105.699 107.154Z" fill="#CEDBE7"/>
<path d="M96.6819 92.2554L103.716 103.08L109.688 99.0294L107.398 95.4529L106.572 95.8793L102.04 88.2762L99.7032 89.7684L99.8448 90.7632L98.9243 91.4264L98.5466 90.9527L96.6819 92.2554Z" fill="#CEDBE7"/>
<path d="M106.501 84.6286L112.497 91.1185L112.072 91.8527L115.046 94.8371L120.498 89.8868L111.128 80.6021L109.357 82.5443L109.475 83.1364L108.578 83.7522L107.776 83.2075L106.501 84.6286Z" fill="#CEDBE7"/>
<path d="M114.692 77.6413L124.133 86.4524L128.807 81.7863L119.129 72.9042L114.692 77.6413Z" fill="#CEDBE7"/>
<path d="M115.211 100.83L123.213 110.138L128.004 106.325L120.003 96.9214L115.211 100.83Z" fill="#CEDBE7"/>
<path d="M123.354 93.6528L132.3 102.559L137.139 97.9399L128.004 89.0104L123.354 93.6528Z" fill="#CEDBE7"/>
<path d="M132.843 87.5182L139.712 94.1976L141.459 92.3027L140.845 91.6632L142.356 90.2895L142.851 90.8579L144.881 88.7736L138.201 82.4022L136.36 84.4865L136.927 84.9602L135.581 86.5945L134.661 85.8366L132.843 87.5182Z" fill="#CEDBE7"/>
<path d="M131.639 77.8072L134.283 80.3415L137.517 77.2861L134.566 74.657L131.639 77.8072Z" fill="#CEDBE7"/>
<path d="M145.377 84.7707L148.375 87.5656L153.52 82.4022L149.154 78.3046L146.958 80.6021L148.162 81.7863L145.377 84.7707Z" fill="#CEDBE7"/>
<path d="M120.923 127.239L131.238 139.034L136.95 134.131L123.567 118.949L116.792 124.728L119.649 128.257L120.923 127.239Z" fill="#CEDBE7"/>
<path d="M127.556 115.775L134.944 124.065L139.641 119.92L132.229 111.559L127.556 115.775Z" fill="#CEDBE7"/>
<path d="M136.502 107.983L139.358 111.535L140.514 110.28L142.143 111.843L141.695 112.436L144.409 115.159L144.787 114.78L146.274 116.509L147.832 115.159L149.106 116.509L147.383 118.404L146.722 118.025L145.306 119.328L144.858 120.133L145.212 120.607C145.212 120.607 143.583 121.957 143.701 121.981C143.819 122.004 146.935 125.842 146.935 125.842L147.501 125.415L147.147 124.941L147.997 124.278L148.587 124.823L150.877 122.644L150.452 122.336L152.033 121.152L152.387 121.531L154.37 119.944L153.945 119.423L155.574 118.12L155.81 118.475L157.58 117.291V116.32L160.153 114.354L160.507 114.733L160.932 114.283L156.943 110.067L154.016 112.649L153.591 112.364L151.396 113.667L151.844 114.259L149.932 115.988L148.162 114.259L149.956 112.672L148.516 111.18L149.106 110.564L146.392 107.604L145.802 108.101L144.598 106.585L145.755 105.59L144.315 103.885L143.937 104.169L142.426 102.464L141.482 103.198L141.836 103.577V104.264L137.706 107.604L137.116 107.106L136.478 107.912L136.502 107.983Z" fill="#CEDBE7"/>
<path d="M149.838 100.166L149.295 100.924L152.6 103.98L153.308 103.174L153.78 103.719L156.943 100.427L156.258 99.7637L157.321 98.7452L157.793 99.2189L160.885 96.1635L160.342 95.7845L161.522 94.8371L160.483 93.7002L160.106 94.0555L158.005 92.0659L157.415 92.658L156.188 91.6395L154.37 93.3923L154.582 93.937L149.059 98.8636L149.838 100.166Z" fill="#CEDBE7"/>
<path d="M57.5465 126.173L56.2955 127.121L57.5465 128.992L61.6064 125.747L61.1343 124.965L66.0203 120.891L61.8896 116.225L58.9391 118.902L59.7889 120.252L55.9886 123.141L56.8148 124.16L55.9886 124.657L57.5465 126.173Z" fill="#CEDBE7"/>
<path d="M75.9812 114.401L81.953 111.867L82.9916 112.743L84.0066 116.225L84.9035 116.936L85.8477 120.891L87.0987 122.147L87.5472 124.965L80.9144 127.476L79.5218 123.662L81.7642 122.739L81.3629 122.052L79.215 122.739L77.8223 119.352L80.0411 118.452L79.6634 117.552L77.1614 118.381L75.9812 114.401Z" fill="#CEDBE7"/>
<path d="M70.0802 117.552L73.1015 116.794L72.6531 115.325L75.0843 114.686L74.4233 112.814L77.303 111.867L77.8223 113.312L80.7728 111.867L80.3243 110.635L81.2213 110.138L79.5926 105.638L77.8223 106.088L78.2708 107.154L75.6508 107.722L75.9812 109.475L68.546 112.222L70.0802 117.552Z" fill="#CEDBE7"/>
<path d="M53.1325 116.344C52.4716 117.504 51.9996 118.831 51.6219 120.11C50.8666 122.81 50.6777 125.747 51.3858 128.494C51.8815 130.437 52.8493 132.166 54.1003 133.705C54.3836 134.06 54.9737 133.989 55.2805 133.705C55.611 133.374 55.5638 132.876 55.2805 132.521C53.3686 130.2 52.4952 127.286 52.6133 124.302C52.6605 123.094 52.8493 121.981 53.1561 120.796C53.2978 120.299 53.4394 119.825 53.6046 119.328C53.6754 119.138 53.7462 118.925 53.8171 118.736C53.8643 118.641 53.8879 118.546 53.9351 118.452C53.9351 118.404 54.0059 118.309 53.9351 118.475C53.9351 118.428 53.9823 118.381 54.0059 118.309C54.1711 117.931 54.3599 117.528 54.5724 117.173C55.1153 116.249 53.6754 115.396 53.1325 116.344Z" fill="white"/>
<path d="M154.771 82.5917C149.98 87.3525 145.094 92.0422 140.208 96.6846C130.766 105.638 121.206 114.496 111.246 122.857C106.643 126.718 101.969 130.555 96.9415 133.8C96.0446 134.368 96.8707 135.813 97.7677 135.245C107.587 128.897 116.415 120.797 125.077 112.98C133.74 105.164 142.332 97.0399 150.759 88.8447C152.482 87.163 154.228 85.4813 155.928 83.776C156.683 83.018 155.527 81.8574 154.748 82.5917H154.771Z" fill="white"/>
<path d="M105.392 157.391C110.396 155.662 115.211 153.151 119.837 150.617C132.489 143.724 144.291 135.292 155.291 126.007C164.307 118.404 172.758 110.162 180.736 101.469C181.444 100.687 180.287 99.5032 179.555 100.285C166.762 114.259 152.647 127.097 137.092 137.921C128.406 143.985 119.271 149.527 109.593 153.862C108.059 154.548 106.525 155.235 104.943 155.78C103.952 156.135 104.377 157.722 105.392 157.391Z" fill="white"/>
<path d="M126.565 27.7122C125.738 27.949 126.069 27.4279 126.14 27.7595C126.116 27.6174 126.258 27.8543 126.447 28.0201C126.919 28.4227 127.391 28.8491 127.863 29.2754C129.444 30.7202 131.002 32.1888 132.56 33.6573C137.517 38.347 142.426 43.0841 147.336 47.8212C158.147 58.2666 168.934 68.7356 179.673 79.2283C182.152 81.6442 184.607 84.0365 187.085 86.4524C187.84 87.2104 189.021 86.0261 188.265 85.2681C181.302 78.4704 174.315 71.6726 167.352 64.8749C156.376 54.2163 145.424 43.5341 134.307 32.9941C132.513 31.2887 130.719 29.5833 128.878 27.9253C128.335 27.4279 127.037 25.8173 126.14 26.0779C125.125 26.3858 125.55 27.9964 126.588 27.6885L126.565 27.7122Z" fill="white"/>
<path d="M111.505 29.1807C112.213 29.7254 187.675 102.038 187.675 102.038" stroke="white" stroke-width="0.27" stroke-miterlimit="10" stroke-dasharray="0.23 0.23"/>
<path d="M186.731 87.7788L186.33 87.3998L186.778 86.9261L187.18 87.3051L186.731 87.7788ZM185.905 86.9972L185.504 86.6182L185.952 86.1445L186.353 86.5235L185.905 86.9972ZM185.102 86.2392L184.701 85.8603L185.15 85.3865L185.551 85.7655L185.102 86.2392ZM184.323 85.4576L183.922 85.0786L184.371 84.6049L184.772 84.9839L184.323 85.4576ZM183.521 84.6997L183.12 84.3207L183.568 83.847L183.969 84.226L183.521 84.6997ZM182.718 83.9417L182.364 83.6101L182.553 83.3259L182.813 83.1364L183.167 83.4917L182.718 83.9654V83.9417ZM181.916 83.1838L181.538 82.8285L181.963 82.3548L181.751 82.5916L181.987 82.3785L182.364 82.7574L181.916 83.2312V83.1838ZM181.113 82.4022L180.759 82.0706L180.948 81.7863L181.208 81.5969L181.562 81.9521L181.113 82.4258V82.4022ZM180.311 81.6442L179.91 81.2653L180.358 80.7915L180.759 81.1705L180.311 81.6442ZM179.508 80.8863L179.107 80.5073L179.555 80.0336L179.957 80.4126L179.508 80.8863ZM178.706 80.1047L178.304 79.7257L178.753 79.252L179.154 79.631L178.706 80.1047ZM177.903 79.3467L177.502 78.9678L177.95 78.494L178.352 78.873L177.903 79.3467ZM177.101 78.5888L176.699 78.2098L177.148 77.7361L177.549 78.1151L177.101 78.5888ZM176.322 77.8309L175.92 77.4519L176.369 76.9782L176.77 77.3571L176.322 77.8309ZM175.519 77.0729L175.118 76.6939L175.566 76.2202L175.968 76.5992L175.519 77.0729ZM174.717 76.2913L174.315 75.9123L174.764 75.4386L175.165 75.8176L174.717 76.2913ZM173.914 75.5333L173.513 75.1544L173.961 74.6807L174.363 75.0596L173.914 75.5333ZM173.112 74.7754L172.71 74.3964L173.159 73.9227L173.56 74.3017L173.112 74.7754ZM172.309 73.9938L171.908 73.6148L172.356 73.1411L172.758 73.5201L172.309 73.9938ZM171.507 73.2358L171.105 72.8569L171.554 72.3832L171.955 72.7621L171.507 73.2358ZM170.704 72.4779L170.303 72.0989L170.751 71.6252L171.152 72.0042L170.704 72.4779ZM169.901 71.72L169.5 71.341L169.949 70.8673L170.35 71.2463L169.901 71.72ZM169.099 70.9383L168.698 70.5594L169.146 70.0857L169.547 70.4646L169.099 70.9383ZM168.296 70.1804L167.895 69.8014L168.344 69.3277L168.745 69.7067L168.296 70.1804ZM167.517 69.4225L167.116 69.0435L167.565 68.5698L167.966 68.9488L167.517 69.4225ZM166.715 68.6645L166.314 68.2856L166.762 67.8118L167.163 68.1908L166.715 68.6645ZM165.912 67.9066L165.511 67.5276L165.96 67.0539L166.361 67.4329L165.912 67.9066ZM165.11 67.125L164.709 66.746L165.157 66.2723L165.558 66.6513L165.11 67.125ZM164.307 66.367L163.906 65.9881L164.354 65.5143L164.756 65.8933L164.307 66.367ZM163.505 65.6091L163.103 65.2301L163.552 64.7564L163.953 65.1354L163.505 65.6091ZM162.702 64.8512L162.301 64.4722L162.749 63.9985L163.151 64.3774L162.702 64.8512ZM161.9 64.0695L161.498 63.6906L161.947 63.2168L162.348 63.5958L161.9 64.0695ZM161.097 63.3116L160.696 62.9326L161.144 62.4589L161.546 62.8379L161.097 63.3116ZM160.318 62.5536L159.917 62.1747L160.365 61.701L160.767 62.0799L160.318 62.5536ZM159.516 61.7957L159.114 61.4167L159.563 60.943L159.964 61.322L159.516 61.7957ZM158.713 61.0141L158.312 60.6351L158.76 60.1614L159.162 60.5404L158.713 61.0141ZM157.911 60.2561L157.509 59.8772L157.958 59.4035L158.359 59.7824L157.911 60.2561ZM157.108 59.4982L156.707 59.1192L157.155 58.6455L157.557 59.0245L157.108 59.4982ZM156.306 58.7403L155.904 58.3613L156.353 57.8876L156.754 58.2666L156.306 58.7403ZM155.503 57.9586L155.102 57.5797L155.55 57.106L155.951 57.4849L155.503 57.9586ZM154.7 57.2007L154.299 56.8217L154.748 56.348L155.149 56.727L154.7 57.2007ZM153.898 56.4428L153.497 56.0638L153.945 55.5901L154.346 55.9691L153.898 56.4428ZM153.095 55.6611L152.694 55.2822L153.143 54.8085L153.544 55.1874L153.095 55.6611ZM152.293 54.9032L151.892 54.5242L152.34 54.0505L152.741 54.4295L152.293 54.9032ZM151.514 54.1453L151.113 53.7663L151.561 53.2926L151.962 53.6716L151.514 54.1453ZM150.711 53.3873L150.31 53.0084L150.759 52.5346L151.16 52.9136L150.711 53.3873ZM149.909 52.6294L149.508 52.2504L149.956 51.7767L150.357 52.1557L149.909 52.6294ZM149.106 51.8478L148.705 51.4688L149.154 50.9951L149.555 51.3741L149.106 51.8478ZM148.304 51.0898L147.903 50.7109L148.351 50.2371L148.752 50.6161L148.304 51.0898ZM147.501 50.3319L147.1 49.9529L147.548 49.4792L147.95 49.8582L147.501 50.3319ZM146.699 49.574L146.297 49.195L146.746 48.7213L147.147 49.1002L146.699 49.574ZM145.896 48.816L145.495 48.437L145.943 47.9633L146.345 48.3423L145.896 48.816ZM145.094 48.0344L144.692 47.6554L145.141 47.1817L145.542 47.5607L145.094 48.0344ZM144.291 47.2764L143.89 46.8975L144.338 46.4238L144.74 46.8027L144.291 47.2764ZM143.489 46.5185L143.087 46.1395L143.536 45.6658L143.937 46.0448L143.489 46.5185ZM142.71 45.7606L142.308 45.3816L142.757 44.9079L143.158 45.2869L142.71 45.7606ZM141.907 45.0026L141.506 44.6237L141.954 44.15L142.356 44.5289L141.907 45.0026ZM141.105 44.221L140.703 43.842L141.152 43.3683L141.553 43.7473L141.105 44.221ZM140.302 43.4631L139.901 43.0841L140.349 42.6104L140.751 42.9894L140.302 43.4631ZM139.5 42.7051L139.098 42.3262L139.547 41.8525L139.948 42.2314L139.5 42.7051ZM138.697 41.9472L138.296 41.5682L138.744 41.0945L139.145 41.4735L138.697 41.9472ZM137.894 41.1656L137.493 40.7866L137.942 40.3129L138.343 40.6919L137.894 41.1656ZM137.092 40.4076L136.691 40.0287L137.139 39.555L137.54 39.9339L137.092 40.4076ZM136.289 39.6497L135.888 39.2707L136.337 38.797L136.738 39.176L136.289 39.6497ZM135.487 38.8918L135.086 38.5128L135.534 38.0391L135.935 38.418L135.487 38.8918ZM134.684 38.1338L134.283 37.7548L134.732 37.2811L135.133 37.6601L134.684 38.1338ZM133.882 37.3522L133.48 36.9732L133.929 36.4995L134.33 36.8785L133.882 37.3522ZM133.103 36.5943L132.702 36.2153L133.15 35.7416L133.551 36.1205L133.103 36.5943ZM132.3 35.8363L131.899 35.4573L132.348 34.9836L132.749 35.3626L132.3 35.8363ZM131.498 35.0784L131.096 34.6994L131.545 34.2257L131.946 34.6047L131.498 35.0784ZM130.695 34.2968L130.294 33.9178L130.742 33.4441L131.144 33.823L130.695 34.2968ZM129.893 33.5388L129.491 33.1598L129.94 32.6861L130.341 33.0651L129.893 33.5388ZM129.09 32.7809L128.689 32.4019L129.137 31.9282L129.539 32.3072L129.09 32.7809ZM128.288 32.0229L127.886 31.644L128.335 31.1703L128.736 31.5492L128.288 32.0229ZM127.485 31.265L127.084 30.886L127.532 30.4123L127.934 30.7913L127.485 31.265ZM126.683 30.4834L126.281 30.1044L126.73 29.6307L127.131 30.0097L126.683 30.4834ZM125.88 29.7254L125.479 29.3465L125.927 28.8728L126.328 29.2517L125.88 29.7254ZM125.077 28.9675C124.841 28.7543 124.7 28.6359 124.676 28.5885L125.054 28.0674C125.054 28.0674 125.219 28.2096 125.502 28.4938L125.054 28.9675H125.077Z" fill="white"/>
<path d="M186.235 92.9897L166.502 73.0938L119.908 28.2333L120.309 27.8306L166.88 72.6911L186.637 92.6107L186.235 92.9897Z" fill="#C7DDF1"/>
</g>
</g>
<path d="M108.744 74.3491L101.851 78.3282L106.454 80.981L108.744 79.6546L111.033 80.981L115.636 78.3282L108.744 74.3491Z" fill="#3B79B9"/>
<path d="M108.744 115.633L125.974 105.638V94.9792L121.372 97.632V102.961L108.72 110.28L96.0682 102.961V97.632L91.4654 94.9792V105.638L108.72 115.633H108.744Z" fill="#3B79B9"/>
<path d="M128.264 82.9943V88.3236L112.166 97.6557L116.745 100.308L108.696 104.975L100.647 100.308L105.25 97.6557L89.1522 88.3236V82.9943L86.8626 81.6679V75.0123L106.407 86.334L108.696 85.0076L110.986 86.334L130.53 75.0123V81.6679L128.24 82.9943H128.264Z" fill="#122F48"/>
<mask id="mask2_49018_2859" style="mask-type:luminance" maskUnits="userSpaceOnUse" x="140" y="100" width="62" height="70">
<path d="M201.932 100.332H140.184V169.494H201.932V100.332Z" fill="white"/>
</mask>
<g mask="url(#mask2_49018_2859)">
<mask id="mask3_49018_2859" style="mask-type:luminance" maskUnits="userSpaceOnUse" x="140" y="100" width="62" height="70">
<path d="M201.932 100.332H140.184V169.494H201.932V100.332Z" fill="white"/>
</mask>
<g mask="url(#mask3_49018_2859)">
<path d="M184.347 169.494H141.27C140.68 169.494 140.208 169.02 140.208 168.428V101.422C140.208 100.83 140.68 100.356 141.27 100.356H173.584C173.891 100.356 174.15 100.474 174.363 100.687L185.126 111.488C185.315 111.701 185.456 111.962 185.456 112.246V168.452C185.456 169.02 184.984 169.518 184.371 169.518L184.347 169.494Z" fill="#F0EBEB"/>
<path d="M172.899 100.332H173.961C174.268 100.332 174.528 100.451 174.74 100.664L185.504 111.464C185.716 111.654 185.834 111.938 185.834 112.222V113.264H174.009C173.418 113.264 172.946 112.791 172.946 112.199C172.923 112.199 172.923 100.356 172.923 100.356L172.899 100.332Z" fill="#CEDBE7"/>
<path d="M169.665 106.822H145.943C145.353 106.822 144.881 106.348 144.881 105.756C144.881 105.164 145.353 104.69 145.943 104.69H169.618C170.208 104.69 170.68 105.164 170.68 105.756C170.704 106.348 170.208 106.822 169.642 106.822" fill="#3B78BA"/>
<path d="M169.665 112.222H145.943C145.353 112.222 144.881 111.749 144.881 111.156C144.881 110.564 145.353 110.091 145.943 110.091H169.618C170.208 110.091 170.68 110.564 170.68 111.156C170.704 111.749 170.208 112.222 169.642 112.222" fill="#3B78BA"/>
<path d="M176.416 118.712H145.967C145.377 118.712 144.905 118.238 144.905 117.646C144.905 117.054 145.377 116.58 145.967 116.58H176.393C176.983 116.58 177.455 117.054 177.455 117.646C177.478 118.238 176.983 118.712 176.416 118.712Z" fill="#3B78BA"/>
<path d="M166.432 125.178H145.967C145.377 125.178 144.905 124.705 144.905 124.112C144.905 123.52 145.377 123.047 145.967 123.047H166.432C167.022 123.047 167.494 123.52 167.494 124.112C167.494 124.705 167.022 125.178 166.432 125.178Z" fill="#3B78BA"/>
<path d="M156.73 131.668H145.943C145.353 131.668 144.881 131.194 144.881 130.602C144.881 130.01 145.353 129.536 145.943 129.536H156.73C157.321 129.536 157.793 130.01 157.793 130.602C157.793 131.194 157.321 131.668 156.73 131.668Z" fill="#3B78BA"/>
<path d="M153.497 138.158H145.943C145.353 138.158 144.881 137.684 144.881 137.092C144.881 136.5 145.353 136.026 145.943 136.026H153.497C154.087 136.026 154.559 136.5 154.559 137.092C154.559 137.684 154.087 138.158 153.497 138.158Z" fill="#3B78BA"/>
<path d="M158.878 144.648H145.967C145.377 144.648 144.905 144.174 144.905 143.582C144.905 142.99 145.377 142.516 145.967 142.516H158.878C159.468 142.516 159.941 142.99 159.941 143.582C159.941 144.174 159.468 144.648 158.878 144.648Z" fill="#3B78BA"/>
<path d="M165.346 151.114H145.943C145.353 151.114 144.881 150.64 144.881 150.048C144.881 149.456 145.353 148.982 145.943 148.982H165.346C165.936 148.982 166.408 149.456 166.408 150.048C166.408 150.64 165.936 151.114 165.346 151.114Z" fill="#3B78BA"/>
<path d="M179.343 157.604H145.943C145.353 157.604 144.881 157.13 144.881 156.538C144.881 155.946 145.353 155.472 145.943 155.472H179.343C179.933 155.472 180.405 155.946 180.405 156.538C180.405 157.13 179.933 157.604 179.343 157.604Z" fill="#3B78BA"/>
<path d="M179.343 164.094H145.943C145.353 164.094 144.881 163.62 144.881 163.028C144.881 162.436 145.353 161.962 145.943 161.962H179.343C179.933 161.962 180.405 162.436 180.405 163.028C180.405 163.62 179.933 164.094 179.343 164.094Z" fill="#3B78BA"/>
</g>
</g>
<path d="M188.95 137.234C188.95 144.506 183.072 150.38 175.85 150.38C168.627 150.38 162.749 144.482 162.749 137.234C162.749 129.986 168.627 124.089 175.85 124.089C183.072 124.089 188.95 129.986 188.95 137.234Z" fill="#0F814D"/>
<path d="M182.435 132.26C181.963 131.787 181.184 131.787 180.688 132.26C180.688 132.26 180.688 132.26 180.665 132.284L174.976 139.555L171.554 136.121C171.058 135.647 170.279 135.695 169.807 136.192C169.359 136.666 169.359 137.4 169.807 137.874L174.15 142.232C174.622 142.706 175.401 142.706 175.897 142.232C175.897 142.232 175.897 142.232 175.92 142.208L182.459 134.013C182.931 133.539 182.907 132.758 182.459 132.284L182.435 132.26Z" fill="white"/>
</svg>
