<svg width="216" height="182" viewBox="0 0 216 182" fill="none" xmlns="http://www.w3.org/2000/svg">
<g opacity="0.3">
<path d="M161.299 98.6603C166.078 69.1172 146.085 41.2803 116.644 36.4847C87.2027 31.6892 59.4617 51.7511 54.6827 81.2942C49.9037 110.837 69.8964 138.674 99.3377 143.47C128.779 148.265 156.52 128.203 161.299 98.6603Z" stroke="#3B79B9" stroke-width="0.65" stroke-miterlimit="10" stroke-dasharray="1.75 1.75"/>
</g>
<mask id="mask0_49018_2703" style="mask-type:luminance" maskUnits="userSpaceOnUse" x="47" y="33" width="122" height="106">
<path d="M53.9351 138.584H162.089C165.842 138.584 168.863 135.055 168.863 130.721V41.6629C168.863 37.3285 165.818 33.7993 162.089 33.7993H53.9351C50.182 33.7993 47.1607 37.3285 47.1607 41.6629V130.721C47.1607 135.055 50.2057 138.584 53.9351 138.584Z" fill="white"/>
</mask>
<g mask="url(#mask0_49018_2703)">
<mask id="mask1_49018_2703" style="mask-type:luminance" maskUnits="userSpaceOnUse" x="-58" y="-10" width="332" height="227">
<path d="M-57.2632 216.486L273.24 216.486V-9.04791L-57.2632 -9.04791V216.486Z" fill="white"/>
</mask>
<g mask="url(#mask1_49018_2703)">
<path d="M-57.2632 216.486L273.24 216.486V-9.04791L-57.2632 -9.04791V216.486Z" fill="#ECF0F4"/>
<path d="M51.0318 217.86C49.828 216.486 -61.6772 111.464 -61.6772 111.464L-63.6363 116.178L51.0318 226.624V217.86Z" fill="#CEDBE7"/>
<path d="M73.9749 204.43L59.3404 213.786L-59.7889 103.222L-57.2397 89.1052L-5.24009 137.234L21.8809 159.072L73.9749 204.43Z" fill="#CEDBE7"/>
<path d="M177.171 110.896L173.961 105.353L168.485 108.125L171.743 113.714L177.171 110.896Z" fill="#CEDBE7"/>
<path d="M160.625 113.714L165.251 121.483L169.642 119.162L160.224 103.719L155.999 105.946L160.625 113.714Z" fill="#CEDBE7"/>
<path d="M162.254 124.823L157.108 114.851L150.735 118.499L155.999 128.281L162.254 124.823Z" fill="#CEDBE7"/>
<path d="M153.331 132.047L146.699 119.328L139.547 122.739L145.849 135.576L153.331 132.047Z" fill="#CEDBE7"/>
<path d="M147.903 110.73L143.63 103.174L155.22 96.045L149.437 86.097L131.38 98.4136L137.21 116.438L147.903 110.73Z" fill="#CEDBE7"/>
<path d="M162.49 97.3951L155.999 85.0549L160.389 82.8759L167.022 95.1687L162.49 97.3951Z" fill="#CEDBE7"/>
<path d="M182.884 83.1601L170.515 88.7025L164.827 77.3334L176.723 71.5305L182.884 83.1601Z" fill="#CEDBE7"/>
<path d="M276.285 79.9388C265.781 83.5864 255.277 87.234 244.797 90.8579C237.244 93.4633 229.549 95.7845 222.161 98.8636C178.777 116.912 141.813 146.543 107.658 178.329C93.5662 191.427 79.6634 204.904 66.8229 219.281C65.619 220.631 67.6018 222.668 68.8292 221.294C79.4274 209.452 90.8045 198.248 102.3 187.282C123.095 167.457 144.716 148.035 168.462 131.787C184.89 120.56 202.31 110.541 220.579 102.606C227.165 99.74 234.033 97.6083 240.808 95.2397C252.893 91.0474 264.978 86.855 277.063 82.6627C278.787 82.0705 278.031 79.323 276.308 79.9152L276.285 79.9388Z" fill="white"/>
<path d="M90.0256 219.281C81.7406 211.583 73.4556 203.886 65.1706 196.188C50.961 182.995 36.7514 169.778 22.5654 156.585L9.89005 144.814C6.96316 142.09 4.46114 138.324 1.48704 134.439C-1.48706 130.555 -4.05989 126.742 -7.48247 123.449L-23.7928 107.746C-35.524 96.4714 -47.1136 85.0076 -58.9864 73.899C-59.2224 73.6622 -59.4584 73.449 -59.6945 73.2122C-61.0163 71.9568 -63.0226 73.9464 -61.7008 75.2254C-51.5275 85.0076 -41.3542 94.8134 -31.1573 104.596L-12.2741 122.762C-10.787 124.207 -9.27638 125.652 -7.78933 127.097C-7.12841 127.736 -7.78933 126.978 -7.38806 127.5C-6.4203 128.66 -5.54695 129.915 -4.62639 131.1C-0.967777 135.908 2.4312 141.356 6.63271 145.69C9.72482 148.888 13.1946 151.777 16.4284 154.809C30.2367 167.647 44.0214 180.46 57.8297 193.298C67.6962 202.464 77.303 212.104 87.4999 220.892C87.6652 221.034 87.8304 221.2 87.9956 221.365C89.341 222.597 91.3474 220.608 90.002 219.352L90.0256 219.281Z" fill="white"/>
<path d="M276.285 30.6492C259.667 34.9362 243.074 39.1997 226.457 43.4867C225.748 43.6762 225.017 43.9131 224.285 44.0552C225.111 43.9131 223.435 44.0552 223.128 44.1026C218.927 44.4342 214.749 45.2868 210.689 46.329C199.43 49.2187 187.746 53.4821 177.856 59.7114L126.919 91.8053C122.953 94.316 118.846 96.6846 114.975 99.361C109.216 103.34 103.716 107.793 98.1689 112.08C87.6652 120.228 77.3266 128.613 67.3185 137.376C57.8297 145.69 48.2465 154.312 40.41 164.26C38.9938 166.06 37.6483 167.907 36.4445 169.849C35.4768 171.413 37.9316 172.834 38.8993 171.294C44.9656 161.536 53.8879 153.412 62.2909 145.714C72.3698 136.476 82.8972 127.76 93.6134 119.281C103.385 111.535 113.134 103.885 123.685 97.2293C140.963 86.334 158.265 75.4623 175.543 64.5669C184.017 59.2377 192.892 55.069 202.404 51.8241C208.116 49.8819 213.97 48.2239 219.942 47.3475C221.665 47.087 223.412 47.1106 225.111 46.8027C227.637 46.3764 230.139 45.5 232.617 44.8605L247.913 40.9287L275.317 33.8704L277.04 33.4204C278.81 32.9703 278.055 30.2228 276.285 30.6728V30.6492Z" fill="white"/>
<path d="M144.527 146.543L142.356 142.8C141.954 142.113 141.553 141.403 141.152 140.716C141.081 140.574 140.562 139.698 140.892 140.361C140.68 139.911 140.491 139.413 140.302 138.94L136.596 129.963C131.687 118.096 126.777 106.23 121.867 94.3634L85.9657 7.5557C83.1332 0.734251 80.3243 -6.0872 77.4918 -12.9086C76.8073 -14.5666 74.0693 -13.8561 74.7538 -12.1507C82.5195 6.63196 90.3088 25.4383 98.0745 44.221C109.617 72.1226 121.159 100.024 132.702 127.926L137.352 139.153C138.626 142.256 140.396 145.05 142.072 147.964C142.993 149.551 145.448 148.106 144.527 146.519V146.543Z" fill="white"/>
<path d="M132.843 145.406L122.056 133.61L105.699 148.13L116.981 159.712L132.843 145.406Z" fill="#CEDBE7"/>
<path d="M110.726 133.137L100.34 121.768L92.74 128.518L102.843 140.005L110.726 133.137Z" fill="#CEDBE7"/>
<path d="M96.2806 146.401L84.5258 134.747L76.5005 142.374L88.7509 154.098L96.2806 146.401Z" fill="#CEDBE7"/>
<path d="M107.705 99.1005L108.059 99.8821L101.237 103.98L98.7118 100.119L99.5615 99.1005L96.5874 91.5211L95.3364 91.8764L93.5189 86.9024L105.699 81.9284L111.552 96.3766L107.705 99.1005Z" fill="#CEDBE7"/>
<path d="M104.92 76.1255L94.4867 50.3082L83.0624 54.6426L87.5471 65.8933L90.0256 64.7564L96.2806 79.8678L104.92 76.1255Z" fill="#CEDBE7"/>
<path d="M83.0624 67.5987L78.0112 59.3798L73.8333 61.6773L78.7901 69.9672L83.0624 67.5987Z" fill="#CEDBE7"/>
<path d="M79.687 82.8758L65.8787 65.4196L56.6967 72.0515L70.151 90.171L79.687 82.8758Z" fill="#CEDBE7"/>
<path d="M95.1476 108.409L83.0624 89.8631L72.8655 96.803L76.8073 102.961L78.1764 102.18L85.9657 115.207L89.9548 112.649L89.7187 110.943L91.2766 109.83L91.9375 110.659L95.1476 108.409Z" fill="#CEDBE7"/>
<path d="M78.2944 121.483L68.0503 110.351L68.7584 109.119L63.7071 103.98L54.3364 112.483L70.4107 128.352L73.4084 125.036L73.2432 124.018L74.7538 122.952L76.1228 123.899L78.2944 121.483Z" fill="#CEDBE7"/>
<path d="M64.2972 133.445L48.1285 118.333L40.1031 126.339L56.6967 141.545L64.2972 133.445Z" fill="#CEDBE7"/>
<path d="M63.4003 93.7238L49.6864 77.7834L41.4958 84.297L55.1861 100.403L63.4003 93.7238Z" fill="#CEDBE7"/>
<path d="M49.4503 106.04L34.1313 90.7631L25.8699 98.6978L41.4958 113.951L49.4503 106.04Z" fill="#CEDBE7"/>
<path d="M85.6588 31.8571L81.8114 26.1015L80.3479 27.0489L74.9898 15.7983L77.3502 14.0929L73.668 5.61346L56.1067 14.8035L59.6 22.0749L62.9754 20.0143L67.6726 33.2782L62.2437 37.3048L67.6254 44.4578L85.6588 31.8571Z" fill="#CEDBE7"/>
<path d="M53.6282 48.4844L35.9488 28.3043L26.1532 36.7126L49.0963 62.6957L60.6858 52.7952L55.7998 46.7553L53.6282 48.4844Z" fill="#CEDBE7"/>
<path d="M185.315 37.6601L187.321 25.0357L181.562 25.912L178.706 25.0357L175.755 21.1749L168.462 32.0466C168.462 32.0466 178.706 36.239 179.343 36.4521C179.98 36.6653 185.315 37.6838 185.315 37.6838V37.6601Z" fill="#CEDBE7"/>
<path d="M114.314 24.4672L102.559 -5.44769L91.0641 -1.72906L106.36 35.552L120.357 29.9386L117.595 23.0461L114.314 24.4672Z" fill="#CEDBE7"/>
<path d="M162.159 50.3082L164.307 48.6976L162.159 45.5L155.22 51.0424L155.999 52.4162L147.643 59.3798L154.7 67.3618L159.752 62.7668L158.335 60.4456L164.827 55.4953L163.434 53.7663L164.827 52.8899L162.159 50.3082Z" fill="#CEDBE7"/>
<path d="M159.634 39.8865L157.226 36.5469L155.22 37.6601L149.791 32.2598L135.51 42.8709L137.281 45.5L140.939 43.3683L146.132 50.924L149.083 49.0528L147.643 46.9448L159.634 39.8865Z" fill="#CEDBE7"/>
<path d="M120.357 42.3735L118.209 37.6601L106.973 41.5919L108.885 46.8264L120.357 42.3735Z" fill="#CEDBE7"/>
<path d="M130.601 70.4883L120.357 74.8228L118.586 73.3306L116.84 67.3618L115.305 66.1538L113.677 59.3797L111.552 57.2244L110.773 52.4162L122.127 48.058L124.535 54.6426L120.687 56.2059L121.372 57.3665L125.03 56.2059L127.438 62.0089L123.638 63.5484L124.275 65.088L128.571 63.6668L130.601 70.4883Z" fill="#CEDBE7"/>
<path d="M140.703 65.088L135.51 66.3907L136.266 68.8776L132.111 69.9672L133.244 73.2121L128.311 74.8227L127.438 72.3594L122.387 74.8227L123.142 76.9307L121.631 77.7834L124.417 85.4812L127.438 84.7233L126.683 82.8758L131.167 81.9284L130.601 78.9203L143.3 74.2306L140.703 65.088Z" fill="#CEDBE7"/>
<path d="M274.727 26.9305C266.772 29.8675 258.676 32.4256 250.509 34.7231C243.617 36.6653 236.653 38.3943 229.596 39.6023C225.206 40.3602 220.839 40.5023 216.425 40.9761C205.331 42.184 193.954 42.7288 182.836 41.5682C178.163 41.0945 172.852 40.5023 168.839 37.8969C163.434 34.4151 158.241 30.4833 153.733 25.8647C150.168 22.2171 147.501 17.9063 144.928 13.5245C140.019 5.11608 135.888 -3.74232 132.725 -12.956C132.135 -14.6851 129.397 -13.9271 129.987 -12.1981C134.165 -3.8147e-06 139.877 12.1507 147.36 22.7145C151.561 28.6359 157.415 33.3493 163.269 37.5416C166.975 40.1944 170.043 42.0419 174.528 43.0841C186.92 45.95 200.28 45.2631 212.837 44.1499C223.341 43.2262 233.538 41.9945 243.805 39.4128C254.073 36.8311 265.096 33.4677 275.435 29.6543C277.134 29.0385 276.403 26.2673 274.679 26.9068L274.727 26.9305Z" fill="white"/>
<path d="M169.689 67.1486C171.436 64.0932 172.545 60.4693 173.064 57.0112C174.174 49.9055 172.569 43.0367 168.013 37.4232C166.857 36.0021 164.874 38.0154 166.007 39.4365C171.955 46.779 171.837 57.6744 167.234 65.7275C166.314 67.3144 168.768 68.7593 169.689 67.1723V67.1486Z" fill="white"/>
<path d="M134.283 35.7415C138.815 32.6387 143.347 29.5359 147.903 26.4331L149.814 25.1304C151.302 24.1119 149.885 21.6486 148.375 22.6671C143.843 25.7699 139.311 28.8727 134.755 31.9755L132.843 33.2782C131.356 34.2967 132.772 36.76 134.283 35.7415Z" fill="white"/>
<path d="M135.51 36.4284L131.852 28.6595L125.668 30.3649L129.468 38.418L135.51 36.4284Z" fill="#CEDBE7"/>
<path d="M-4.31952 124.941C19.6385 101.161 44.2575 77.7834 70.1038 56.0874C78.0112 49.4555 86.0365 42.8709 94.7228 37.2574C96.257 36.2626 94.8408 33.7993 93.2829 34.7941C76.3825 45.7132 61.2523 59.6403 46.3346 73.07C31.4169 86.4997 17.0185 100.166 2.71446 114.07C-0.306846 117.007 -3.35176 119.967 -6.34946 122.928C-7.64768 124.207 -5.64134 126.22 -4.34313 124.941H-4.31952Z" fill="white"/>
<path d="M80.2063 -3.15021C71.6853 -0.189511 63.4711 4.09758 55.5638 8.38467C33.8717 20.1801 13.6195 34.652 -5.24009 50.5687C-20.6771 63.5958 -35.1935 77.7124 -48.813 92.6343C-50.0404 93.9844 -48.0341 95.9976 -46.8067 94.6476C-24.7842 70.5356 -0.448475 48.4607 26.3656 29.8201C41.0945 19.5879 56.5787 10.2085 72.9599 2.86593C75.5799 1.68165 78.2236 0.521056 80.938 -0.426367C82.6611 -1.01851 81.9058 -3.76603 80.1827 -3.17389L80.2063 -3.15021Z" fill="white"/>
<path d="M69.7497 216.439C68.5459 215.491 -60.6858 91.6632 -60.6858 91.6632" stroke="white" stroke-width="0.47" stroke-miterlimit="10" stroke-dasharray="0.4 0.4"/>
<path d="M55.0209 218.381L-24.7606 141.545L-58.5615 107.461" stroke="#89C2DE" stroke-width="0.4" stroke-miterlimit="10"/>
</g>
</g>
<path d="M47.326 52.1556H168.698V40.2892C168.698 36.7126 165.794 33.7993 162.23 33.7993H54.4544C50.5125 33.7993 47.326 36.9969 47.326 40.9524V52.1556Z" fill="#3B79B9"/>
<path d="M159.209 42.3972C159.209 43.5341 160.129 44.4815 161.262 44.4815C162.395 44.4815 163.316 43.5578 163.316 42.3972C163.316 41.2603 162.395 40.3129 161.262 40.3129C160.129 40.3129 159.209 41.2366 159.209 42.3972Z" fill="white"/>
<path d="M153.048 42.3972C153.048 43.5341 153.969 44.4815 155.102 44.4815C156.235 44.4815 157.155 43.5578 157.155 42.3972C157.155 41.2603 156.235 40.3129 155.102 40.3129C153.969 40.3129 153.048 41.2366 153.048 42.3972Z" fill="white"/>
<path d="M146.888 42.3972C146.888 43.5341 147.808 44.4815 148.941 44.4815C150.074 44.4815 150.995 43.5578 150.995 42.3972C150.995 41.2603 150.074 40.3129 148.941 40.3129C147.808 40.3129 146.888 41.2366 146.888 42.3972Z" fill="white"/>
<path d="M53.9115 138.584C53.9115 138.584 53.8171 138.584 53.6282 138.584C53.4394 138.584 53.1562 138.561 52.8021 138.466C52.094 138.324 50.961 137.968 49.8752 136.997C48.7658 136.05 47.7036 134.463 47.326 132.331C47.1135 131.265 47.2079 130.105 47.1843 128.85C47.1843 127.594 47.1843 126.268 47.1843 124.87C47.1843 113.62 47.2079 97.3714 47.2316 77.2623C47.2316 67.2197 47.2316 56.2059 47.2316 44.3868C47.2316 43.6525 47.2316 42.8946 47.2316 42.1603C47.2316 41.4024 47.2552 40.6918 47.3968 39.9576C47.68 38.5127 48.3409 37.1153 49.3559 36.0021C50.3473 34.8888 51.7635 34.1546 53.2506 33.9651C53.9823 33.894 54.7612 33.9414 55.5402 33.9177C56.3191 33.9177 57.0744 33.9177 57.8533 33.9177C64.0612 33.9177 70.4343 33.9177 76.9962 33.9177C103.197 33.9177 131.993 33.9177 162.23 33.9177C162.702 33.9177 163.174 33.9177 163.623 33.9888C163.859 34.0362 164.071 34.0598 164.284 34.1309C164.402 34.1546 164.496 34.202 164.614 34.2256L164.921 34.3678C165.771 34.723 166.502 35.3389 167.093 36.0494C167.683 36.76 168.108 37.6127 168.367 38.5127C168.65 39.4128 168.698 40.3365 168.674 41.2839C168.674 45.0736 168.674 48.8396 168.674 52.5583C168.674 60.0192 168.674 67.3855 168.674 74.6096C168.674 89.0814 168.674 103.032 168.674 116.32C168.674 119.636 168.674 122.928 168.674 126.149C168.674 127.76 168.674 129.371 168.674 130.958C168.674 131.739 168.509 132.521 168.296 133.279C168.084 134.037 167.753 134.747 167.305 135.387C166.88 136.026 166.361 136.618 165.771 137.092C165.181 137.566 164.496 137.921 163.788 138.158C163.434 138.276 163.056 138.347 162.702 138.395C162.325 138.395 161.97 138.442 161.569 138.442C160.814 138.442 160.059 138.442 159.303 138.442C156.282 138.442 153.331 138.442 150.428 138.442C138.768 138.442 127.934 138.442 118.02 138.442C98.2161 138.442 82.1654 138.466 71.0952 138.49C65.5482 138.49 61.2523 138.49 58.3254 138.513C61.2523 138.513 65.5482 138.513 71.0952 138.537C82.189 138.537 98.2161 138.561 118.02 138.584C127.934 138.584 138.791 138.584 150.428 138.584C153.331 138.584 156.306 138.584 159.303 138.584C160.059 138.584 160.814 138.584 161.569 138.584C161.947 138.584 162.325 138.584 162.726 138.537C163.103 138.466 163.505 138.419 163.859 138.276C164.591 138.04 165.299 137.661 165.912 137.163C166.526 136.666 167.069 136.074 167.494 135.41C167.942 134.747 168.273 134.013 168.509 133.255C168.745 132.497 168.886 131.692 168.91 130.886C168.934 129.276 168.91 127.689 168.91 126.055C168.91 122.81 168.91 119.541 168.91 116.225C168.91 102.938 168.91 88.9867 168.91 74.5148C168.91 67.2907 168.91 59.9245 168.91 52.4635C168.91 48.7212 168.91 44.9789 168.91 41.1892C168.91 40.2418 168.863 39.2707 168.58 38.3469C168.32 37.4232 167.871 36.5468 167.258 35.7889C166.644 35.0309 165.889 34.4151 164.992 34.0362L164.661 33.894C164.661 33.894 164.425 33.823 164.307 33.7993C164.071 33.7282 163.835 33.6809 163.599 33.6335C163.127 33.5624 162.631 33.5624 162.159 33.5624C131.923 33.5624 103.126 33.5624 76.9254 33.5624C70.3871 33.5624 63.9904 33.5624 57.7825 33.5624C57.0036 33.5624 56.2247 33.5624 55.4693 33.5624C54.6904 33.5624 53.9351 33.5388 53.1561 33.6098C51.5983 33.7993 50.1584 34.5809 49.1199 35.7178C48.0577 36.8547 47.3968 38.2996 47.1135 39.7681C46.9719 40.5023 46.9247 41.2839 46.9483 42.0182C46.9483 42.7524 46.9483 43.5104 46.9483 44.2446C46.9483 56.0637 46.9483 67.0775 46.9483 77.1202C46.9483 97.2293 46.9719 113.478 46.9955 124.728C46.9955 126.126 46.9955 127.452 46.9955 128.707C46.9955 129.939 46.9247 131.123 47.1371 132.189C47.5148 134.345 48.6242 135.955 49.7336 136.903C50.843 137.897 51.9759 138.205 52.6841 138.347C53.0617 138.419 53.345 138.442 53.5338 138.442C53.7226 138.442 53.8171 138.442 53.8171 138.442L53.9115 138.584Z" fill="#122F48"/>
<path d="M145.92 61.7483H68.8528C67.4319 61.7483 66.28 62.9042 66.28 64.33V124.515C66.28 125.941 67.4319 127.097 68.8528 127.097H145.92C147.341 127.097 148.493 125.941 148.493 124.515V64.33C148.493 62.9042 147.341 61.7483 145.92 61.7483Z" fill="white"/>
<path d="M77.4919 69.2566C76.1937 69.2566 75.1315 70.3224 75.1315 71.6251V85.0786H97.2012V71.6251C97.2012 70.3224 96.139 69.2566 94.8408 69.2566H77.4919Z" fill="#122F48"/>
<path d="M73.55 85.8602H98.7826C98.7826 87.1629 97.7205 88.2287 96.4222 88.2287H75.934C74.6358 88.2287 73.5736 87.1629 73.5736 85.8602H73.55Z" fill="#122F48"/>
<path d="M135.699 95.2397H79.0733C75.6057 95.2397 72.7946 98.0605 72.7946 101.54V113.407C72.7946 116.886 75.6057 119.707 79.0733 119.707H135.699C139.167 119.707 141.978 116.886 141.978 113.407V101.54C141.978 98.0605 139.167 95.2397 135.699 95.2397Z" fill="#EBF2F8"/>
<mask id="mask2_49018_2703" style="mask-type:luminance" maskUnits="userSpaceOnUse" x="75" y="100" width="16" height="15">
<path d="M90.0963 100.379H75.934V114.591H90.0963V100.379Z" fill="white"/>
</mask>
<g mask="url(#mask2_49018_2703)">
<path d="M83.0152 100.379C82.8499 100.379 82.7083 100.379 82.5431 100.379L82.5903 101.256C82.8499 101.256 83.1332 101.256 83.3928 101.256L83.44 100.379C83.2748 100.379 83.1332 100.379 82.968 100.379H83.0152ZM81.6225 100.498C81.3157 100.569 81.0088 100.64 80.7256 100.735L81.0088 101.587C81.2685 101.493 81.5281 101.422 81.7878 101.374L81.6225 100.498ZM85.2811 100.735C84.9979 100.64 84.691 100.545 84.3842 100.498L84.219 101.374C84.4786 101.422 84.7382 101.493 84.9979 101.587L85.2811 100.758V100.735ZM86.9334 101.564C86.6738 101.398 86.4141 101.232 86.1309 101.09L85.7296 101.895C85.9657 102.014 86.2017 102.156 86.4377 102.298L86.9334 101.564ZM79.8758 101.09C79.5926 101.232 79.3329 101.374 79.0733 101.564L79.569 102.298C79.805 102.156 80.0174 102.014 80.2771 101.895L79.8758 101.09ZM78.3416 102.132C78.1055 102.345 77.8931 102.559 77.6807 102.795L78.3416 103.388C78.5304 103.174 78.7192 102.985 78.9081 102.819L78.318 102.156L78.3416 102.132ZM88.326 102.795C88.1136 102.559 87.9012 102.345 87.6651 102.132L87.075 102.795C87.2875 102.985 87.4763 103.174 87.6415 103.364L88.3024 102.772L88.326 102.795ZM89.341 104.335C89.1994 104.051 89.0578 103.79 88.8689 103.53L88.1372 104.027C88.2788 104.24 88.4205 104.477 88.5385 104.738L89.341 104.335ZM77.1142 103.53C76.9489 103.79 76.7837 104.051 76.6421 104.335L77.4446 104.738C77.5626 104.501 77.7043 104.264 77.8459 104.027L77.1142 103.53ZM76.3116 105.188C76.2172 105.472 76.1228 105.78 76.0756 106.088L76.9489 106.253C76.9961 105.993 77.067 105.732 77.1614 105.472L76.3352 105.188H76.3116ZM89.9547 106.088C89.8839 105.78 89.8131 105.472 89.7187 105.188L88.8689 105.472C88.9634 105.732 89.0342 105.993 89.0814 106.253L89.9547 106.088ZM75.934 107.011C75.934 107.319 75.934 107.627 75.934 107.935L76.8073 107.888C76.8073 107.627 76.8073 107.343 76.8073 107.082L75.934 107.035V107.011ZM90.0727 107.461C90.0727 107.296 90.0727 107.154 90.0727 106.988L89.1994 107.035C89.1994 107.296 89.1994 107.58 89.1994 107.84L90.0727 107.888C90.0727 107.746 90.0727 107.58 90.0727 107.414V107.461ZM76.052 108.859C76.1228 109.167 76.1936 109.475 76.288 109.759L77.1378 109.475C77.0434 109.214 76.9725 108.954 76.9253 108.693L76.052 108.859ZM89.6951 109.759C89.7895 109.475 89.8839 109.167 89.9311 108.859L89.0578 108.693C89.0106 108.954 88.9398 109.214 88.8453 109.475L89.6715 109.759H89.6951ZM76.6657 110.612C76.8073 110.896 76.9489 111.156 77.1378 111.417L77.8695 110.92C77.7279 110.683 77.5862 110.47 77.4682 110.209L76.6657 110.612ZM88.8925 111.417C89.0578 111.156 89.223 110.896 89.3646 110.612L88.5621 110.209C88.4441 110.446 88.3024 110.683 88.1608 110.92L88.8925 111.417ZM77.6807 112.151C77.8931 112.388 78.1055 112.601 78.3416 112.814L78.9317 112.151C78.7192 111.962 78.5304 111.772 78.3652 111.583L77.7043 112.175L77.6807 112.151ZM87.6651 112.814C87.9012 112.601 88.1136 112.388 88.326 112.151L87.6651 111.559C87.4763 111.772 87.2875 111.962 87.0986 112.128L87.6887 112.791L87.6651 112.814ZM86.1309 113.833C86.4141 113.691 86.6738 113.549 86.9334 113.359L86.4377 112.625C86.2017 112.767 85.9893 112.909 85.7296 113.028L86.1309 113.833ZM79.0733 113.383C79.3329 113.549 79.5926 113.714 79.8758 113.857L80.2771 113.051C80.0411 112.933 79.805 112.791 79.569 112.649L79.0733 113.383ZM80.7256 114.188C81.0088 114.283 81.3157 114.378 81.6225 114.425L81.7878 113.549C81.5281 113.501 81.2685 113.43 81.0088 113.335L80.7256 114.164V114.188ZM84.3842 114.425C84.691 114.354 84.9979 114.283 85.2811 114.188L84.9979 113.335C84.7382 113.43 84.4786 113.501 84.219 113.549L84.3842 114.425ZM82.5431 114.543C82.8499 114.543 83.1568 114.543 83.4636 114.543L83.4164 113.667C83.1568 113.667 82.8735 113.667 82.6139 113.667L82.5667 114.543H82.5431Z" fill="#C42E45"/>
<path d="M82.8263 109.025C83.1332 109.025 83.2748 108.812 83.322 108.48C83.3456 108.006 83.4872 107.769 84.0773 107.39C84.6674 106.964 84.9979 106.443 84.9979 105.661C84.9979 104.501 84.1954 103.719 82.9916 103.719C82.0946 103.719 81.4101 104.145 81.1268 104.856C81.056 105.046 81.0088 105.259 81.0088 105.448C81.0088 105.78 81.1977 106.017 81.4809 106.017C81.7169 106.017 81.8822 105.898 81.9766 105.567C82.1182 105.046 82.4487 104.761 82.9207 104.761C83.4636 104.761 83.8413 105.14 83.8413 105.709C83.8413 106.206 83.6525 106.49 83.1096 106.869C82.5667 107.248 82.2834 107.675 82.2834 108.29V108.385C82.2834 108.764 82.4723 109.025 82.8027 109.025H82.8263Z" fill="#C42E45"/>
<path d="M81.9058 110.351C81.9058 110.114 82.0002 109.901 82.1654 109.735C82.3306 109.569 82.5667 109.475 82.7791 109.475C82.9915 109.475 83.2276 109.569 83.3928 109.735C83.558 109.901 83.6525 110.138 83.6525 110.351C83.6525 110.564 83.558 110.801 83.3928 110.991C83.2276 111.156 82.9915 111.251 82.7791 111.251C82.5667 111.251 82.3306 111.156 82.1654 110.991C82.0002 110.825 81.9058 110.588 81.9058 110.351Z" fill="#C42E45"/>
</g>
<path d="M105.769 103.767V112.601H103.976V107.39L102.134 112.601H100.86L99.0187 107.39V112.601H97.2248V103.767H99.1131L101.497 110.588L103.881 103.767H105.769ZM108.342 105.543C108.035 105.543 107.776 105.448 107.611 105.282C107.422 105.117 107.327 104.88 107.327 104.595C107.327 104.311 107.422 104.074 107.611 103.909C107.799 103.743 108.035 103.648 108.342 103.648C108.649 103.648 108.909 103.743 109.074 103.909C109.263 104.074 109.357 104.311 109.357 104.595C109.357 104.88 109.263 105.117 109.074 105.282C108.885 105.448 108.649 105.543 108.319 105.543H108.342ZM107.563 106.277H109.168V112.578H107.563V106.277ZM112.733 112.72C112.19 112.72 111.694 112.601 111.293 112.388C110.891 112.175 110.585 111.891 110.419 111.512L111.411 110.825C111.552 111.038 111.765 111.204 112.001 111.322C112.237 111.441 112.473 111.512 112.709 111.512C112.992 111.512 113.228 111.441 113.417 111.299C113.606 111.156 113.7 110.967 113.7 110.754C113.7 110.588 113.63 110.446 113.488 110.327C113.346 110.209 113.063 110.091 112.638 109.901C111.883 109.617 111.34 109.309 111.033 109.001C110.726 108.693 110.561 108.314 110.561 107.888C110.561 107.367 110.773 106.94 111.198 106.632C111.623 106.325 112.19 106.159 112.898 106.159C113.37 106.159 113.795 106.253 114.172 106.443C114.55 106.609 114.857 106.869 115.093 107.225L114.172 107.911C113.889 107.556 113.488 107.367 112.969 107.367C112.709 107.367 112.52 107.414 112.379 107.509C112.237 107.604 112.166 107.722 112.166 107.888C112.166 108.006 112.19 108.101 112.261 108.172C112.308 108.243 112.426 108.338 112.591 108.409C112.756 108.504 113.016 108.598 113.393 108.74C113.889 108.93 114.267 109.119 114.526 109.309C114.81 109.475 114.999 109.688 115.117 109.901C115.235 110.114 115.282 110.375 115.282 110.683C115.282 111.085 115.164 111.441 114.951 111.749C114.739 112.056 114.432 112.293 114.054 112.459C113.677 112.625 113.228 112.72 112.733 112.72ZM118.28 112.72C117.737 112.72 117.241 112.601 116.84 112.388C116.438 112.175 116.132 111.891 115.966 111.512L116.958 110.825C117.099 111.038 117.312 111.204 117.548 111.322C117.784 111.441 118.02 111.512 118.256 111.512C118.539 111.512 118.775 111.441 118.964 111.299C119.153 111.156 119.247 110.967 119.247 110.754C119.247 110.588 119.176 110.446 119.035 110.327C118.893 110.209 118.61 110.091 118.185 109.901C117.43 109.617 116.887 109.309 116.58 109.001C116.273 108.693 116.108 108.314 116.108 107.888C116.108 107.367 116.32 106.94 116.745 106.632C117.17 106.325 117.737 106.159 118.445 106.159C118.917 106.159 119.342 106.253 119.719 106.443C120.097 106.609 120.404 106.869 120.64 107.225L119.719 107.911C119.436 107.556 119.035 107.367 118.516 107.367C118.256 107.367 118.067 107.414 117.925 107.509C117.784 107.604 117.713 107.722 117.713 107.888C117.713 108.006 117.737 108.101 117.807 108.172C117.855 108.243 117.973 108.338 118.138 108.409C118.303 108.504 118.563 108.598 118.94 108.74C119.436 108.93 119.814 109.119 120.073 109.309C120.357 109.475 120.545 109.688 120.664 109.901C120.782 110.114 120.829 110.375 120.829 110.683C120.829 111.085 120.711 111.441 120.498 111.749C120.286 112.056 120.003 112.293 119.601 112.459C119.224 112.625 118.775 112.72 118.28 112.72ZM122.906 105.543C122.599 105.543 122.339 105.448 122.174 105.282C121.985 105.117 121.891 104.88 121.891 104.595C121.891 104.311 121.985 104.074 122.174 103.909C122.363 103.743 122.599 103.648 122.906 103.648C123.213 103.648 123.472 103.743 123.638 103.909C123.826 104.074 123.921 104.311 123.921 104.595C123.921 104.88 123.826 105.117 123.638 105.282C123.449 105.448 123.213 105.543 122.882 105.543H122.906ZM122.103 106.277H123.708V112.578H122.103V106.277ZM125.219 107.959C125.219 107.201 125.219 106.632 125.172 106.301H126.683C126.73 106.656 126.753 107.011 126.753 107.39H126.801C126.942 107.011 127.225 106.727 127.603 106.514C127.981 106.277 128.406 106.182 128.878 106.182C129.609 106.182 130.152 106.419 130.506 106.917C130.884 107.414 131.049 108.125 131.049 109.072V112.625H129.444V109.072C129.444 108.527 129.35 108.125 129.185 107.864C129.019 107.604 128.736 107.485 128.335 107.485C127.886 107.485 127.532 107.651 127.249 107.959C126.966 108.267 126.824 108.669 126.824 109.167V112.601H125.219V107.959ZM138.083 106.277V112.341C138.083 113.407 137.824 114.212 137.281 114.757C136.761 115.301 135.959 115.586 134.92 115.586C134.425 115.586 133.976 115.538 133.528 115.42C133.103 115.301 132.725 115.136 132.395 114.922L132.938 113.833C133.244 113.975 133.551 114.093 133.905 114.188C134.236 114.283 134.566 114.33 134.873 114.33C135.44 114.33 135.864 114.141 136.148 113.786C136.431 113.43 136.573 112.885 136.573 112.175V111.962C136.407 112.199 136.171 112.364 135.888 112.483C135.605 112.601 135.251 112.649 134.85 112.649C133.976 112.649 133.292 112.364 132.82 111.796C132.347 111.227 132.111 110.422 132.111 109.38C132.111 108.338 132.347 107.58 132.796 107.035C133.268 106.467 133.905 106.182 134.755 106.182C135.605 106.182 136.266 106.49 136.643 107.106H136.667L136.785 106.301H138.107L138.083 106.277ZM136.478 109.048C136.478 108.504 136.36 108.077 136.124 107.793C135.888 107.509 135.558 107.343 135.109 107.343C134.637 107.343 134.283 107.509 134.023 107.864C133.764 108.219 133.646 108.717 133.646 109.356C133.646 109.996 133.764 110.517 134 110.848C134.259 111.18 134.613 111.346 135.086 111.346C135.534 111.346 135.864 111.227 136.101 110.943C136.337 110.683 136.455 110.304 136.455 109.806V109.001L136.478 109.048Z" fill="#C42E45"/>
<path d="M137.493 73.4016H106.666C104.203 73.4016 102.205 75.4058 102.205 77.8782V78.044C102.205 80.5163 104.203 82.5206 106.666 82.5206H137.493C139.957 82.5206 141.954 80.5163 141.954 78.044V77.8782C141.954 75.4058 139.957 73.4016 137.493 73.4016Z" fill="#636B77"/>
<path d="M53.1562 22.1223C52.448 20.8907 50.8902 20.4643 49.6628 21.1749C49.2615 21.4117 48.9311 21.7197 48.7186 22.1223L33.1636 48.6975C32.125 50.474 33.376 52.7241 35.3824 52.7241H66.516C68.5224 52.7241 69.7734 50.474 68.7348 48.6975L53.1798 22.1223H53.1562Z" fill="#FFC107"/>
<path d="M50.9138 29.9385C52.1176 29.9385 53.0854 30.9807 52.9673 32.2124L52.1648 40.1944C52.1176 40.8813 51.5039 41.4024 50.8194 41.3313C50.2057 41.2839 49.7336 40.7865 49.6864 40.1944L48.8838 32.2124C48.7658 31.0754 49.592 30.0806 50.725 29.9622C50.7958 29.9622 50.8666 29.9622 50.9374 29.9622" fill="#122F48"/>
<path d="M50.9374 43.6052C52.1884 43.6052 53.2034 44.6236 53.2034 45.879C53.2034 47.1343 52.1884 48.1528 50.9374 48.1528C49.6864 48.1528 48.6714 47.1343 48.6714 45.879C48.6714 44.6236 49.6864 43.6052 50.9374 43.6052Z" fill="#122F48"/>
<path d="M165.7 157.391C178.371 157.391 188.643 147.083 188.643 134.368C188.643 121.653 178.371 111.346 165.7 111.346C153.029 111.346 142.757 121.653 142.757 134.368C142.757 147.083 153.029 157.391 165.7 157.391Z" fill="#3B79B9"/>
<path d="M165.7 122.81C167.517 122.81 168.981 124.278 168.981 126.102V132.71H162.395V126.102C162.395 124.278 163.859 122.81 165.676 122.81H165.7ZM170.633 132.71V126.102C170.633 123.355 168.414 121.152 165.7 121.152C162.985 121.152 160.767 123.378 160.767 126.102V132.71C158.949 132.71 157.486 134.179 157.486 136.003V144.269C157.486 146.093 158.949 147.561 160.767 147.561H170.633C172.451 147.561 173.914 146.093 173.914 144.269V136.003C173.914 134.179 172.451 132.71 170.633 132.71Z" fill="white"/>
</svg>
