<?xml version="1.0" encoding="utf-8"?>
<!-- Generator: Adobe Illustrator 17.0.0, SVG Export Plug-In . SVG Version: 6.00 Build 0)  -->
<!DOCTYPE svg PUBLIC "-//W3C//DTD SVG 1.1//EN" "http://www.w3.org/Graphics/SVG/1.1/DTD/svg11.dtd">
<svg version="1.1" id="svglogo" xmlns="http://www.w3.org/2000/svg" xmlns:xlink="http://www.w3.org/1999/xlink" x="0px" y="0px" viewBox="0 0 24 24" enable-background="new 0 0 24 24" xml:space="preserve">
	<path id="iso" fill="#EFEAE8" d="M12.001,0.697l-3.79,2.188l2.526,1.458l1.26-0.729l1.266,0.729l2.526-1.459L12.001,0.697z M12.002,23.303
	l9.472-5.469V12l-2.527,1.459l0.001,2.917l-6.947,4.011l-6.948-4.012v-2.917L2.528,12v5.833L12.002,23.303z M10.107,13.459
	L7.58,14.917l4.421,2.552l4.42-2.552l-2.526-1.459l8.843-5.106l-0.002-2.915L24,4.708l-0.001-3.645L13.263,7.261L12,6.532
	l-1.263,0.729L0,1.063v3.646l1.265,0.73v2.913L10.107,13.459z"/>
</svg>
