<svg width="18" height="18" viewBox="0 0 18 18" fill="none" xmlns="http://www.w3.org/2000/svg">
<path d="M10.5802 1.18168C10.1158 -0.393895 7.88415 -0.393894 7.41975 1.18168L7.30713 1.56378C7.0104 2.57051 5.86052 3.04681 4.93884 2.54476L4.58902 2.35422C3.14654 1.56849 1.56849 3.14654 2.35422 4.58902L2.54476 4.93884C3.04681 5.86052 2.57051 7.0104 1.56378 7.30713L1.18168 7.41976C-0.393895 7.88415 -0.393894 10.1158 1.18168 10.5802L1.56378 10.6929C2.57051 10.9896 3.04681 12.1395 2.54476 13.0612L2.35422 13.411C1.56849 14.8535 3.14654 16.4315 4.58902 15.6458L4.93884 15.4552C5.86052 14.9532 7.0104 15.4295 7.30713 16.4362L7.41976 16.8183C7.88415 18.3939 10.1158 18.3939 10.5802 16.8183L10.6929 16.4362C10.9896 15.4295 12.1395 14.9532 13.0612 15.4552L13.411 15.6458C14.8535 16.4315 16.4315 14.8535 15.6458 13.411L15.4552 13.0612C14.9532 12.1395 15.4295 10.9896 16.4362 10.6929L16.8183 10.5802C18.3939 10.1158 18.3939 7.88415 16.8183 7.41976L16.4362 7.30713C15.4295 7.0104 14.9532 5.86052 15.4552 4.93884L15.6458 4.58902C16.4315 3.14654 14.8535 1.56849 13.411 2.35422L13.0612 2.54476C12.1395 3.04681 10.9896 2.57051 10.6929 1.56378L10.5802 1.18168ZM9 12.2949C7.18027 12.2949 5.70508 10.8197 5.70508 9C5.70508 7.18027 7.18027 5.70508 9 5.70508C10.8197 5.70508 12.2949 7.18027 12.2949 9C12.2949 10.8197 10.8197 12.2949 9 12.2949Z" fill="#3B79B9"/>
</svg>
